<?xml version="1.0" encoding="UTF-8" standalone="no"?>
<svg
   xmlns:dc="http://purl.org/dc/elements/1.1/"
   xmlns:cc="http://creativecommons.org/ns#"
   xmlns:rdf="http://www.w3.org/1999/02/22-rdf-syntax-ns#"
   xmlns:svg="http://www.w3.org/2000/svg"
   xmlns="http://www.w3.org/2000/svg"
   xmlns:sodipodi="http://sodipodi.sourceforge.net/DTD/sodipodi-0.dtd"
   xmlns:inkscape="http://www.inkscape.org/namespaces/inkscape"
   viewBox="0 0 452.90671 76.773292"
   height="5.1182199pc"
   width="30.193781pc"
   xml:space="preserve"
   id="svg2"
   version="1.1"
   inkscape:version="0.91 r13725"
   sodipodi:docname="netvibes_white.svg"><sodipodi:namedview
     pagecolor="#ffffff"
     bordercolor="#666666"
     borderopacity="1"
     objecttolerance="10"
     gridtolerance="10"
     guidetolerance="10"
     inkscape:pageopacity="0"
     inkscape:pageshadow="2"
     inkscape:window-width="1405"
     inkscape:window-height="855"
     id="namedview13"
     showgrid="false"
     units="pc"
     inkscape:zoom="1.2117898"
     inkscape:cx="248.699"
     inkscape:cy="113.38667"
     inkscape:window-x="35"
     inkscape:window-y="1"
     inkscape:window-maximized="1"
     inkscape:current-layer="g10" /><metadata
     id="metadata8"><rdf:RDF><cc:Work
         rdf:about=""><dc:format>image/svg+xml</dc:format><dc:type
           rdf:resource="http://purl.org/dc/dcmitype/StillImage" /><dc:title></dc:title></cc:Work></rdf:RDF></metadata><defs
     id="defs6"><clipPath
       id="clipPath20"
       clipPathUnits="userSpaceOnUse"><path
         id="path18"
         d="m 0,0 5669,0 0,1700.79 -5669,0 z"
         inkscape:connector-curvature="0" /></clipPath></defs><g
     transform="matrix(1.3333333,0,0,-1.3333333,13.203609,83.374884)"
     id="g10"><path
       inkscape:connector-curvature="0"
       d="m 162.98855,15.55358 -0.024,0 -1.619,4.6289 -1.498,0 2.35,-6.1757 -0.157,-0.4801 c -0.168,-0.5278 -0.324,-0.8641 -0.959,-0.8641 -0.214,0 -0.431,0.0473 -0.648,0.0844 l 0,-1.1524 c 0.312,-0.0468 0.625,-0.0718 0.949,-0.0718 1.426,0 1.75,1.0082 2.194,2.123 l 2.412,6.5367 -1.428,0 z m -39.348,-0.6597 c -1.188,0 -1.715,1.055 -1.715,2.1226 0,1.1153 0.455,2.2539 1.738,2.2539 1.057,0 1.717,-0.814 1.717,-2.1812 0,-1.0805 -0.515,-2.1953 -1.74,-2.1953 z m 1.691,4.4859 -0.023,0 c -0.42,0.684 -1.283,0.9707 -2.063,0.9707 -1.355,0 -2.687,-0.9844 -2.687,-3.2266 0,-1.8589 0.947,-3.3101 2.902,-3.3101 0.78,0 1.559,0.3012 1.92,1.0082 l 0.024,0 0,-0.8402 1.295,0 0,8.564 -1.368,0 z m -7.894,-0.3965 -0.024,0 0,1.1992 -1.283,0 0,-6.2007 1.367,0 0,2.9507 c 0,1.3672 0.745,2.1235 1.68,2.1235 0.191,0 0.395,-0.0371 0.588,-0.061 l 0,1.3203 c -0.121,0.0122 -0.205,0.0352 -0.516,0.0352 -0.84,0 -1.656,-0.7066 -1.812,-1.3672 z m -13.692,-4.0894 c -1.222,0 -1.76301,1.1148 -1.76301,2.1953 0,1.0664 0.54101,2.1812 1.76301,2.1812 1.223,0 1.764,-1.1148 1.764,-2.1812 0,-1.0805 -0.541,-2.1953 -1.764,-2.1953 z m 0,5.4566 c -1.99001,0 -3.13001,-1.3672 -3.13001,-3.2613 0,-1.9082 1.14,-3.2754 3.13001,-3.2754 1.991,0 3.131,1.3672 3.131,3.2754 0,1.8941 -1.14,3.2613 -3.131,3.2613 z m 76.092,0.8984 1.367,0 0,1.2969 -1.367,0 z m -67.273,-5.1793 c 0,-0.8636 -0.936,-1.1757 -1.535,-1.1757 -0.479,0 -1.26,0.18 -1.26,0.791 0,0.7211 0.529,0.9351 1.115,1.0308 0.602,0.1094 1.26,0.0957 1.68,0.3735 z m 1.367,-0.7089 0,3.1914 c 0,1.3062 -1.272,1.7984 -2.482,1.7984 -1.368,0 -2.723,-0.4687 -2.819,-2.0625 l 1.367,0 c 0.061,0.6723 0.6,0.9824 1.368,0.9824 0.552,0 1.283,-0.1304 1.283,-0.8394 0,-0.8032 -0.875,-0.6953 -1.86,-0.875 -1.15,-0.1313 -2.386,-0.3828 -2.386,-1.9301 0,-1.2133 1.007,-1.8121 2.123,-1.8121 0.732,0 1.607,0.2281 2.146,0.7558 0.11,-0.5628 0.504,-0.7558 1.057,-0.7558 0.226,0 0.66,0.084 0.863,0.1558 l 0,0.9473 c -0.144,-0.023 -0.252,-0.023 -0.336,-0.023 -0.252,0 -0.324,0.1308 -0.324,0.4668 z m 42.963,3.6226 -0.026,0 0,1.1992 -1.283,0 0,-6.2007 1.367,0 0,2.9507 c 0,1.3672 0.745,2.1235 1.68,2.1235 0.192,0 0.397,-0.0371 0.588,-0.061 l 0,1.3203 c -0.119,0.0122 -0.203,0.0352 -0.516,0.0352 -0.839,0 -1.656,-0.7066 -1.81,-1.3672 z m 29.769,1.3672 c -0.814,0 -1.523,-0.4195 -1.929,-1.1031 l -0.026,0.023 0,0.9121 -1.295,0 0,-6.2007 1.368,0 0,3.6582 c 0,0.9121 0.587,1.6304 1.5,1.6304 0.802,0 1.187,-0.4199 1.211,-1.3906 l 0,-3.898 1.367,0 0,4.2578 c 0,1.3902 -0.852,2.1109 -2.196,2.1109 z m -17.41,1.6914 -1.367,0 0,-1.8594 -1.031,0 0,-1.0195 1.031,0 0,-3.6582 c 0.023,-1.0309 0.287,-1.582 1.715,-1.582 0.299,0 0.588,0.0468 0.887,0.0699 l 0,1.057 c -0.192,-0.0488 -0.383,-0.0488 -0.577,-0.0488 -0.611,0 -0.658,0.2891 -0.658,0.8519 l 0,3.3102 1.235,0 0,1.0195 -1.235,0 z m 6.192,-1.6914 c -0.817,0 -1.524,-0.4195 -1.86,-0.9844 l -0.023,0 0,3.1797 -1.367,0 0,-8.564 1.367,0 0,3.6582 c 0,0.9121 0.586,1.6304 1.498,1.6304 0.805,0 1.187,-0.4199 1.211,-1.3906 l 0,-3.898 1.367,0 0,4.2578 c 0,1.3902 -0.852,2.1109 -2.193,2.1109 z m -26.184,-2.7227 c 0.037,0.9243 0.684,1.6426 1.631,1.6426 0.924,0 1.512,-0.7793 1.56,-1.6426 z m 1.631,2.7227 c -1.846,0 -2.998,-1.5113 -2.998,-3.273 0,-1.9086 1.092,-3.2637 3.035,-3.2637 1.355,0 2.506,0.7558 2.807,2.1109 l -1.295,0 c -0.24,-0.6828 -0.721,-1.0308 -1.512,-1.0308 -1.139,0 -1.668,0.8629 -1.668,1.8336 l 4.559,0 c 0.226,1.8593 -0.973,3.623 -2.928,3.623 z m -7.176,-4.9297 -0.023,0 -1.571,4.7617 -1.488,0 2.256,-6.2007 1.535,0 2.219,6.2007 -1.416,0 z m -9.058,2.3637 4.318,0 0,1.2223 -4.318,0 0,2.2421 4.666,0 0,1.2969 -6.166,0 0,-8.564 6.25,0 0,1.2949 -4.75,0 z m 45.179,-3.8027 1.367,0 0,6.2007 -1.367,0 z m -105.108018,2.0878 c 0,-0.8636 -0.936,-1.1757 -1.535,-1.1757 -0.48,0 -1.26,0.18 -1.26,0.791 0,0.7211 0.528,0.9351 1.116,1.0308 0.6,0.1094 1.259,0.0957 1.679,0.3735 z m 1.367,-0.7089 0,3.1914 c 0,1.3062 -1.271,1.7984 -2.482,1.7984 -1.368,0 -2.723,-0.4687 -2.819,-2.0625 l 1.367,0 c 0.06,0.6723 0.6,0.9824 1.368,0.9824 0.551,0 1.283,-0.1304 1.283,-0.8394 0,-0.8032 -0.876,-0.6953 -1.859,-0.875 -1.151,-0.1313 -2.387,-0.3828 -2.387,-1.9301 0,-1.2133 1.008,-1.8121 2.123,-1.8121 0.732,0 1.607,0.2281 2.147,0.7558 0.108,-0.5628 0.504,-0.7558 1.055,-0.7558 0.228,0 0.66,0.084 0.864,0.1558 l 0,0.9473 c -0.144,-0.023 -0.252,-0.023 -0.336,-0.023 -0.252,0 -0.324,0.1308 -0.324,0.4668 z m -11.411,-0.1547 -1.475,0 0,6.1152 1.475,0 c 2.351,0 2.855,-1.3418 2.855,-3.0586 0,-1.7144 -0.504,-3.0566 -2.855,-3.0566 z m 0.576,7.3398 -3.55,0 0,-8.564 3.55,0 c 2.639,0 3.778,1.9199 3.778,4.2808 0,2.3637 -1.139,4.2832 -3.778,4.2832 z m 16.212,-4.9058 c -1.007,0.2285 -2.015,0.3242 -2.015,0.996 0,0.5387 0.732,0.6344 1.127,0.6344 0.6,0 1.14,-0.1797 1.26,-0.8261 l 1.427,0 c -0.168,1.3793 -1.32,1.9062 -2.591,1.9062 -1.127,0 -2.59,-0.4195 -2.59,-1.7754 0,-1.2598 0.983,-1.6187 1.99,-1.834 0.996,-0.2285 1.992,-0.3125 2.028,-1.0312 0.035,-0.709 -0.864,-0.816 -1.379,-0.816 -0.733,0 -1.332,0.2871 -1.404,1.08 l -1.368,0 c 0.025,-1.4652 1.188,-2.1601 2.747,-2.1601 1.284,0 2.771,0.541 2.771,2.0148 0,1.2235 -1.008,1.5824 -2.003,1.8114 z m 14.472006,-2.7461 c -1.104002,0 -1.740002,0.9347 -1.740002,2.1836 0,1.3179 0.588,2.1929 1.740002,2.1929 1.127,0 1.714,-1.0664 1.714,-2.1929 0,-1.0805 -0.468,-2.1836 -1.714,-2.1836 z m 0.179,5.4566 c -0.695002,0 -1.474002,-0.3711 -1.846002,-0.9707 l -0.025,0 0,3.166 -1.367,0 0,-8.564 1.295,0 0,0.8511 0.024,0 c 0.408,-0.814 1.308,-1.0191 2.148002,-1.0191 1.834,0 2.674,1.5719 2.674,3.2383 0,1.8101 -0.948,3.2984 -2.903,3.2984 z m 97.596012,-5.2887 c -1.141,0 -1.631,1.0309 -1.631,2.0504 0,1.0317 0.42,2.1582 1.631,2.1582 1.188,0 1.666,-0.9824 1.666,-2.0508 0,-1.0546 -0.455,-2.1578 -1.666,-2.1578 z m 1.666,4.2696 -0.023,0 c -0.348,0.6953 -1.055,1.0191 -1.834,1.0191 -1.764,0 -2.807,-1.4395 -2.807,-3.1055 0,-1.7754 0.814,-3.2632 2.781,-3.2632 0.768,0 1.477,0.4082 1.86,1.0921 l 0.023,0 0,-0.948 c 0,-1.0191 -0.49,-1.584 -1.594,-1.584 -0.695,0 -1.32,0.1328 -1.488,0.9117 l -1.367,0 c 0.121,-1.4508 1.523,-1.9308 2.771,-1.9308 1.955,0 3.045,0.9242 3.045,2.7832 l 0,5.8765 -1.367,0 z m -106.893014,1.0191 c -0.816,0 -1.523,-0.4195 -1.859,-0.9844 l -0.023,0 0,3.1797 -1.368,0 0,-8.564 1.368,0 0,3.6582 c 0,0.9121 0.587,1.6304 1.498,1.6304 0.804,0 1.187,-0.4199 1.212,-1.3906 l 0,-3.898 1.367,0 0,4.2578 c 0,1.3902 -0.852,2.1109 -2.195,2.1109 z m -64.129004,25.2996 -6.073,0 0,-8.8789 -8.8770001,0 0,-6.0695 8.1310001,0 0,-0.002 0.746,0 0,-8.8683 6.073,0 0,8.8683 0.749,0 0,0.002 8.121,0 0,6.0695 -8.87,0 z m 19.587,-27.6898 c -0.006,-3.7836 -3.063,-6.8383 -6.853,-6.8453 l -31.5569997,0 c -3.78,0.007 -6.838,3.0617 -6.846,6.8429 l 0,31.5579 c 0.008,3.787 3.07,6.845 6.846,6.853 l 31.5569997,0 c 3.79,-0.008 6.847,-3.066 6.853,-6.853 z m -6.853,40.4935 -31.5569997,0 c -4.93000005,0 -8.93,-3.998 -8.932,-8.938 l 0,-31.5579 c 0.002,-4.9332 3.99999995,-8.9292998 8.932,-8.9292998 l 31.5569997,0 c 4.94,0 8.94,3.9960998 8.94,8.9316998 l 0,31.5555 c 0,4.94 -3.998,8.938 -8.94,8.938 z m 105.979018,-9.979 -4.333,0 0,-19.6727 4.333,0 z m 14.918,-16.7778 c -3.501,0 -5.515,2.9668 -5.515,6.9238 0,4.1875 1.862,6.9637 5.515,6.9637 3.578,0 5.443,-3.3875 5.443,-6.9637 0,-3.4238 -1.487,-6.9238 -5.443,-6.9238 z m 9.778,6.8465 c 0,5.7453 -3.004,10.4643 -9.206,10.4643 -2.204,0 -4.682,-1.18 -5.859,-3.0842 l -0.078,0 0,10.0492 -4.339,0 0,-27.1707 4.115,0 0,2.7015 0.074,0 c 1.294,-2.5867 4.145,-3.2347 6.806,-3.2347 5.824,0 8.487,4.9847 8.487,10.2746 z m -101.728018,1.8644 c 0,2.8907 1.869,5.1766 4.76,5.1766 2.548,0 3.765,-1.3328 3.839,-4.416 l 0,-12.3664 4.34,0 0,13.507 c 0,4.4157 -2.699,6.6987 -6.963,6.6987 -2.589,0 -4.832,-1.334 -6.123,-3.5003 l -0.077,0.077 0,2.8903 -4.11,0 0,-19.6727 4.334,0 z m 77.032018,15.5649 -4.333,0 0,-4.111 4.333,0 z m -11.94,-7.498 -4.788,-15.1079 -0.084,0 -4.982,15.1079 -4.714,0 7.15,-19.6727 4.867,0 7.044,19.6727 z m -38.649014,-2.8903 c 2.931,0 4.796002,-2.4754 4.944002,-5.2149 l -10.118002,0 c 0.117,2.929 2.17,5.2149 5.174,5.2149 z m 4.910002,-10.618 c -0.76,-2.1672 -2.287002,-3.2695 -4.798002,-3.2695 -3.612,0 -5.286,2.7363 -5.286,5.8223 l 14.459004,0 c 0.72201,5.8945 -3.085002,11.4885 -9.285004,11.4885 -5.861,0 -9.512004,-4.7944 -9.512004,-10.387 0,-6.0527 3.463004,-10.3519 9.624004,-10.3519 4.306002,0 7.956004,2.3988 8.907004,6.6976 z m 77.790012,5.4031 c 0.111,2.929 2.166,5.2149 5.175,5.2149 2.932,0 4.797,-2.4754 4.948,-5.2149 z m 5.175,8.6382 c -5.858,0 -9.51,-4.7944 -9.51,-10.387 0,-6.0527 3.465,-10.3519 9.627,-10.3519 4.296,0 7.947,2.3988 8.902,6.6976 l -4.108,0 c -0.766,-2.1672 -2.284,-3.2695 -4.794,-3.2695 -3.616,0 -5.292,2.7363 -5.292,5.8223 l 14.456,0 c 0.727,5.8945 -3.077,11.4885 -9.281,11.4885 z m -69.276,5.365 -4.334,0 0,-5.898 -3.274,0 0,-3.2329 3.274,0 0,-11.6074 c 0.077,-3.2699 0.909,-5.0223 5.438,-5.0223 0.951,0 1.867,0.1528 2.813,0.2309 l 0,3.3461 c -0.606,-0.1516 -1.218,-0.1516 -1.823,-0.1516 -1.942,0 -2.094,0.9141 -2.094,2.7043 l 0,10.5 3.917,0 0,3.2329 -3.917,0 z m 92.331,-13.9649 c -3.199,0.7235 -6.389,1.0281 -6.389,3.1571 0,1.7109 2.32,2.0195 3.575,2.0195 1.901,0 3.612,-0.5742 3.993,-2.6297 l 4.529,0 c -0.532,4.377 -4.187,6.053 -8.22,6.053 -3.577,0 -8.219,-1.334 -8.219,-5.6323 0,-3.9941 3.121,-5.1348 6.315,-5.8211 3.158,-0.7226 6.317,-0.9894 6.434,-3.2726 0.113,-2.2442 -2.741,-2.5848 -4.374,-2.5848 -2.323,0 -4.23,0.9121 -4.455,3.4226 l -4.335,0 c 0.074,-4.6421 3.766,-6.8507 8.712,-6.8507 4.067,0 8.787,1.7129 8.787,6.3949 0,3.8797 -3.198,5.0222 -6.353,5.7441"
       style="fill:#161315;fill-opacity:1;fill-rule:nonzero;stroke:none"
       id="path24" /><path
       style="fill:none;fill-rule:evenodd;stroke:#000000;stroke-width:0.75px;stroke-linecap:butt;stroke-linejoin:miter;stroke-opacity:1"
       d="m 223.98172,58.497949 0,-49.5135381"
       id="path3350"
       inkscape:connector-curvature="0" /><text
       xml:space="preserve"
       style="font-style:normal;font-variant:normal;font-weight:normal;font-stretch:normal;font-size:16.875px;line-height:125%;font-family:'.Helvetica LT MM';-inkscape-font-specification:'.Helvetica LT MM';letter-spacing:0px;word-spacing:0px;fill:#000000;fill-opacity:1;stroke:none;stroke-width:1px;stroke-linecap:butt;stroke-linejoin:miter;stroke-opacity:1"
       x="234.07361"
       y="-39.495556"
       id="text3352"
       sodipodi:linespacing="125%"
       transform="scale(1,-1)"><tspan
         sodipodi:role="line"
         id="tspan3354"
         x="234.07361"
         y="-39.495556">Confidential</tspan><tspan
         sodipodi:role="line"
         x="234.07361"
         y="-18.401806"
         id="tspan3356">Company</tspan></text>
</g></svg>