<?xml version="1.0" encoding="UTF-8" standalone="no"?>
<svg
   xmlns:dc="http://purl.org/dc/elements/1.1/"
   xmlns:cc="http://creativecommons.org/ns#"
   xmlns:rdf="http://www.w3.org/1999/02/22-rdf-syntax-ns#"
   xmlns:svg="http://www.w3.org/2000/svg"
   xmlns="http://www.w3.org/2000/svg"
   xmlns:sodipodi="http://sodipodi.sourceforge.net/DTD/sodipodi-0.dtd"
   xmlns:inkscape="http://www.inkscape.org/namespaces/inkscape"
   viewBox="0 0 287.90671 46.773298"
   height="3.1182201pc"
   width="19.193781pc"
   xml:space="preserve"
   id="svg2"
   version="1.1"
   inkscape:version="0.91 r13725"
   sodipodi:docname="netvibes_white.svg"><sodipodi:namedview
     pagecolor="#ffffff"
     bordercolor="#666666"
     borderopacity="1"
     objecttolerance="10"
     gridtolerance="10"
     guidetolerance="10"
     inkscape:pageopacity="0"
     inkscape:pageshadow="2"
     inkscape:window-width="1405"
     inkscape:window-height="855"
     id="namedview13"
     showgrid="false"
     units="pc"
     inkscape:zoom="1.2117898"
     inkscape:cx="248.699"
     inkscape:cy="113.38667"
     inkscape:window-x="35"
     inkscape:window-y="1"
     inkscape:window-maximized="1"
     inkscape:current-layer="text3352" /><metadata
     id="metadata8"><rdf:RDF><cc:Work
         rdf:about=""><dc:format>image/svg+xml</dc:format><dc:type
           rdf:resource="http://purl.org/dc/dcmitype/StillImage" /><dc:title></dc:title></cc:Work></rdf:RDF></metadata><defs
     id="defs6"><clipPath
       id="clipPath20"
       clipPathUnits="userSpaceOnUse"><path
         id="path18"
         d="m 0,0 5669,0 0,1700.79 -5669,0 z"
         inkscape:connector-curvature="0" /></clipPath></defs><g
     transform="matrix(1.3333333,0,0,-1.3333333,13.203609,53.37489)"
     id="g10"><path
       inkscape:connector-curvature="0"
       d="m 99.916836,11.436869 -0.0146,0 -0.98402,2.813417 -0.91047,0 1.42831,-3.753553 -0.0954,-0.291802 c -0.10211,-0.3207943 -0.19692,-0.5251953 -0.58287,-0.5251953 -0.13007,0 -0.26196,0.02875 -0.39385,0.0513 l 0,-0.700422 c 0.18963,-0.02844 0.37987,-0.04364 0.57679,-0.04364 0.86672,0 1.063644,0.612778 1.333504,1.2903463 l 1.466,3.972967 -0.86793,0 z M 76.001357,11.035907 c -0.722059,0 -1.042366,0.641223 -1.042366,1.290103 0,0.677873 0.276546,1.369907 1.056346,1.369907 0.642438,0 1.043582,-0.494744 1.043582,-1.32572 0,-0.656721 -0.313014,-1.33429 -1.057562,-1.33429 z m 1.02778,2.726503 -0.01398,0 c -0.255274,0.415731 -0.7798,0.589986 -1.253879,0.589986 -0.823561,0 -1.633143,-0.598313 -1.633143,-1.961108 0,-1.129829 0.575581,-2.011859 1.763818,-2.011859 0.47408,0 0.947551,0.183067 1.166965,0.612778 l 0.01459,0 0,-0.510669 0.787093,0 0,5.205148 -0.831462,0 z m -4.797926,-0.24099 -0.01459,0 0,0.728866 -0.779799,0 0,-3.768748 0.830854,0 0,1.793418 c 0,0.830976 0.452806,1.29065 1.021094,1.29065 0.116088,0 0.240078,-0.02255 0.357383,-0.03708 l 0,0.80247 c -0.07354,0.0074 -0.124598,0.0214 -0.313622,0.0214 -0.510547,0 -1.006507,-0.429468 -1.101323,-0.830976 z m -8.321915,-2.485513 c -0.742724,0 -1.071547,0.677569 -1.071547,1.33429 0,0.648152 0.328823,1.32572 1.071547,1.32572 0.743332,0 1.072149,-0.677568 1.072149,-1.32572 0,-0.656721 -0.328817,-1.33429 -1.072149,-1.33429 z m 0,3.316489 c -1.209516,0 -1.902401,-0.830976 -1.902401,-1.982199 0,-1.159792 0.692885,-1.990768 1.902401,-1.990768 1.210118,0 1.903003,0.830976 1.903003,1.990768 0,1.151223 -0.692885,1.982199 -1.903003,1.982199 z m 46.248264,0.546042 0.83085,0 0,0.788248 -0.83085,0 z M 69.269431,11.75049 c 0,-0.524891 -0.568895,-0.714583 -0.932964,-0.714583 -0.291133,0 -0.76582,0.109403 -0.76582,0.480765 0,0.43828 0.321523,0.568348 0.67769,0.626514 0.365892,0.06649 0.765821,0.05817 1.021094,0.227011 z m 0.830855,-0.430865 0,1.939714 c 0,0.7939 -0.773114,1.093057 -1.508545,1.093057 -0.831462,0 -1.655023,-0.284873 -1.713371,-1.253576 l 0.830854,0 c 0.03708,0.40862 0.364676,0.597097 0.831462,0.597097 0.335503,0 0.7798,-0.07926 0.7798,-0.510182 0,-0.48818 -0.53182,-0.422599 -1.130497,-0.53182 -0.698963,-0.0798 -1.450196,-0.232663 -1.450196,-1.173103 0,-0.737436 0.612048,-1.101383 1.290346,-1.101383 0.444906,0 0.976725,0.138637 1.304326,0.45937 0.06686,-0.342066 0.306328,-0.45937 0.642438,-0.45937 0.137362,0 0.401144,0.05105 0.524527,0.09469 l 0,0.575763 c -0.08752,-0.01398 -0.153164,-0.01398 -0.204219,-0.01398 -0.153164,0 -0.196925,0.0795 -0.196925,0.283718 z m 26.11265,2.201795 -0.0158,0 0,0.728866 -0.779797,0 0,-3.768748 0.830857,0 0,1.793418 c 0,0.830976 0.4528,1.29065 1.02109,1.29065 0.1167,0 0.2413,-0.02255 0.35738,-0.03708 l 0,0.80247 c -0.0723,0.0074 -0.12338,0.0214 -0.31362,0.0214 -0.50994,0 -1.0065,-0.429468 -1.1001,-0.830976 z m 18.093424,0.830976 c -0.49475,0 -0.92567,-0.25497 -1.17244,-0.670458 l -0.0158,0.01398 0,0.554369 -0.78709,0 0,-3.768748 0.83146,0 0,2.223432 c 0,0.554369 0.35678,0.990947 0.91169,0.990947 0.48745,0 0.72145,-0.255212 0.73604,-0.845198 l 0,-2.369181 0.83085,0 0,2.587865 c 0,0.844955 -0.51784,1.282993 -1.33471,1.282993 z m -10.58169,1.028022 -0.83086,0 0,-1.130132 -0.62663,0 0,-0.619646 0.62663,0 0,-2.223432 c 0.014,-0.626575 0.17444,-0.96153 1.04237,-0.96153 0.18173,0 0.35738,0.02844 0.53911,0.04248 l 0,0.642438 c -0.1167,-0.02966 -0.23278,-0.02966 -0.3507,-0.02966 -0.37136,0 -0.39992,0.175713 -0.39992,0.51778 l 0,2.011919 0.75062,0 0,0.619646 -0.75062,0 z m 3.76346,-1.028022 c -0.49657,0 -0.92628,-0.25497 -1.1305,-0.598313 l -0.014,0 0,1.932603 -0.83085,0 0,-5.205148 0.83085,0 0,2.223432 c 0,0.554369 0.35617,0.990947 0.91048,0.990947 0.48927,0 0.72145,-0.255212 0.73603,-0.845198 l 0,-2.369181 0.83086,0 0,2.587865 c 0,0.844955 -0.51784,1.282993 -1.33289,1.282993 z M 91.573647,12.697555 c 0.02249,0.561784 0.415731,0.998362 0.991312,0.998362 0.561601,0 0.918984,-0.473654 0.948158,-0.998362 z m 0.991312,1.654841 c -1.121988,0 -1.822167,-0.918559 -1.822167,-1.98931 0,-1.160036 0.663711,-1.983657 1.844655,-1.983657 0.823561,0 1.523132,0.45937 1.706078,1.282992 l -0.787093,0 c -0.145871,-0.415002 -0.43822,-0.626514 -0.918985,-0.626514 -0.692277,0 -1.0138,0.524465 -1.0138,1.114451 l 2.770932,0 c 0.137362,1.130071 -0.591383,2.202038 -1.77962,2.202038 z m -4.36153,-2.996242 -0.01398,0 -0.954844,2.894132 -0.904398,0 1.371183,-3.768748 0.932964,0 1.348695,3.768748 -0.860636,0 z m -5.505398,1.436642 2.624455,0 0,0.742907 -2.624455,0 0,1.362735 2.835967,0 0,0.788248 -3.747658,0 0,-5.205148 3.798713,0 0,0.787032 -2.887022,0 z m 27.459529,-2.311258 0.83085,0 0,3.768748 -0.83085,0 z M 46.273535,11.75049 c 0,-0.524891 -0.568895,-0.714583 -0.932963,-0.714583 -0.291742,0 -0.765821,0.109403 -0.765821,0.480765 0,0.43828 0.320915,0.568348 0.678298,0.626514 0.364677,0.06649 0.765213,0.05817 1.020486,0.227011 z m 0.830855,-0.430865 0,1.939714 c 0,0.7939 -0.772506,1.093057 -1.508545,1.093057 -0.831462,0 -1.655023,-0.284873 -1.713371,-1.253576 l 0.830854,0 c 0.03647,0.40862 0.364677,0.597097 0.831462,0.597097 0.334895,0 0.7798,-0.07926 0.7798,-0.510182 0,-0.48818 -0.532428,-0.422599 -1.129889,-0.53182 -0.699571,-0.0798 -1.450804,-0.232663 -1.450804,-1.173103 0,-0.737436 0.612656,-1.101383 1.290346,-1.101383 0.444906,0 0.976725,0.138637 1.304934,0.45937 0.06564,-0.342066 0.306328,-0.45937 0.641223,-0.45937 0.138577,0 0.401144,0.05105 0.525134,0.09469 l 0,0.575763 c -0.08752,-0.01398 -0.153164,-0.01398 -0.204219,-0.01398 -0.153164,0 -0.196925,0.0795 -0.196925,0.283718 z m -6.935537,-0.09403 -0.896496,0 0,3.716782 0.896496,0 c 1.428923,0 1.735251,-0.815538 1.735251,-1.858998 0,-1.042002 -0.306328,-1.857784 -1.735251,-1.857784 z m 0.350089,4.461087 -2.157669,0 0,-5.205148 2.157669,0 c 1.603968,0 2.296246,1.166904 2.296246,2.601845 0,1.436642 -0.692278,2.603303 -2.296246,2.603303 z m 9.853556,-2.981716 c -0.612049,0.138881 -1.224705,0.197047 -1.224705,0.605363 0,0.327418 0.444905,0.385584 0.684984,0.385584 0.364676,0 0.692885,-0.10922 0.76582,-0.502098 l 0.867322,0 c -0.102109,0.83833 -0.802288,1.158577 -1.574794,1.158577 -0.684984,0 -1.574186,-0.25497 -1.574186,-1.079078 0,-0.765699 0.597461,-0.983836 1.20951,-1.114694 0.605362,-0.138881 1.210725,-0.189936 1.232606,-0.626757 0.02127,-0.430926 -0.525134,-0.49596 -0.838148,-0.49596 -0.445513,0 -0.809582,0.174498 -0.853343,0.656417 l -0.831462,0 c 0.01519,-0.890539 0.722059,-1.312895 1.66961,-1.312895 0.780408,0 1.684197,0.328816 1.684197,1.224583 0,0.743636 -0.612656,0.961773 -1.217411,1.100958 z m 8.795998,-1.669063 c -0.671006,0 -1.057563,0.568105 -1.057563,1.327179 0,0.801012 0.357383,1.332831 1.057563,1.332831 0.684984,0 1.041759,-0.648151 1.041759,-1.332831 0,-0.656722 -0.284448,-1.327179 -1.041759,-1.327179 z m 0.108795,3.316489 c -0.422418,0 -0.89589,-0.225553 -1.121989,-0.589986 l -0.01519,0 0,1.924276 -0.830854,0 0,-5.205148 0.787093,0 0,0.517294 0.01459,0 c 0.24798,-0.494745 0.794995,-0.619403 1.305543,-0.619403 1.114694,0 1.625241,0.955391 1.625241,1.968219 0,1.100168 -0.576189,2.004748 -1.764426,2.004748 z m 59.318269,-3.21444 c -0.69349,0 -0.99131,0.626574 -0.99131,1.24622 0,0.627061 0.25527,1.311741 0.99131,1.311741 0.72206,0 1.01259,-0.597097 1.01259,-1.246464 0,-0.640979 -0.27655,-1.311497 -1.01259,-1.311497 z m 1.01259,2.595037 -0.014,0 c -0.21152,0.422599 -0.64123,0.619403 -1.1147,0.619403 -1.07215,0 -1.70608,-0.87492 -1.70608,-1.887505 0,-1.079077 0.49475,-1.983353 1.69028,-1.983353 0.46679,0 0.89771,0.248102 1.1305,0.663772 l 0.014,0 0,-0.576189 c 0,-0.6194033 -0.29782,-0.9627453 -0.96883,-0.9627453 -0.42241,0 -0.80229,0.08071 -0.9044,0.5541253 l -0.83085,0 c 0.0735,-0.8817873 0.92567,-1.1735283 1.6842,-1.1735283 1.18823,0 1.85073,0.561723 1.85073,1.6916123 l 0,3.571701 -0.83085,0 z m -64.968936,0.619403 c -0.49596,0 -0.92567,-0.25497 -1.129889,-0.598313 l -0.01398,0 0,1.932603 -0.831462,0 0,-5.205148 0.831462,0 0,2.223432 c 0,0.554369 0.356775,0.990947 0.910475,0.990947 0.488666,0 0.721452,-0.255212 0.736646,-0.845198 l 0,-2.369181 0.830855,0 0,2.587865 c 0,0.844955 -0.517841,1.282993 -1.334108,1.282993 z m -38.977222,15.376944 -3.691133,0 0,-5.396542 -5.3953871,0 0,-3.689005 4.9419731,0 0,-0.0012 0.453414,0 0,-5.390099 3.691133,0 0,5.390099 0.455238,0 0,0.0012 4.935894,0 0,3.689005 -5.391132,0 z M 27.566852,12.899642 C 27.563252,10.599993 25.705179,8.7433647 23.40164,8.7391097 l -19.1801536,0 c -2.2974613,0.0043 -4.15609519,1.8608833 -4.16095759,4.1590743 l 0,19.180701 c 0.00486,2.301716 1.86592749,4.16035 4.16095759,4.165212 l 19.1801536,0 c 2.303539,-0.0049 4.161566,-1.863496 4.165212,-4.165212 z m -4.165212,24.611706 -19.1801536,0 c -2.9964244,0 -5.4276002,-2.429961 -5.4288158,-5.432463 l 0,-19.180701 c 0.00122,-2.9983703 2.4311758,-5.4271757 5.4288158,-5.4271757 l 19.1801536,0 c 3.002503,0 5.433678,2.4288054 5.433678,5.4286337 l 0,19.179243 c 0,3.002502 -2.42996,5.432463 -5.433678,5.432463 z m 64.413409,-6.065176 -2.633572,0 0,-11.956949 2.633572,0 z m 9.067067,-10.197446 c -2.127883,0 -3.351981,1.803203 -3.351981,4.208244 0,2.545137 1.131713,4.232495 3.351981,4.232495 2.17469,0 3.308234,-2.058902 3.308234,-4.232495 0,-2.080965 -0.903794,-4.208244 -3.308234,-4.208244 z m 5.943014,4.161261 c 0,3.491959 -1.82581,6.360139 -5.595354,6.360139 -1.339577,0 -2.84569,-0.717197 -3.561063,-1.874558 l -0.04741,0 0,6.107843 -2.637218,0 0,-16.514188 2.501072,0 0,1.641956 0.04498,0 c 0.786486,-1.572181 2.519309,-1.966032 4.136649,-1.966032 3.539794,0 5.158344,3.029671 5.158344,6.24484 z m -61.829678,1.133171 c 0,1.75695 1.135967,3.146307 2.8931,3.146307 1.548659,0 2.288344,-0.810068 2.333321,-2.684019 l 0,-7.516223 2.637826,0 0,8.209473 c 0,2.683836 -1.640436,4.07143 -4.23207,4.07143 -1.573578,0 -2.93686,-0.810797 -3.721522,-2.127461 l -0.0468,0.0468 0,1.756707 -2.498034,0 0,-11.956949 2.634179,0 z m 46.819597,9.460253 -2.633572,0 0,-2.498641 2.633572,0 z m -7.25706,-4.557239 -2.910118,-9.182491 -0.05105,0 -3.028029,9.182491 -2.865141,0 4.345727,-11.956949 2.958133,0 4.281301,11.956949 z M 57.067351,29.689469 c 1.781444,0 2.914981,-1.504534 3.004935,-3.169585 l -6.149661,0 c 0.07111,1.780228 1.318913,3.169585 3.144726,3.169585 z m 2.98427,-6.453557 c -0.461924,-1.317211 -1.390026,-1.987182 -2.916197,-1.987182 -2.195352,0 -3.212799,1.663107 -3.212799,3.538759 l 8.788095,0 c 0.438834,3.582641 -1.875045,6.982641 -5.643369,6.982641 -3.562281,0 -5.781339,-2.914008 -5.781339,-6.313156 0,-3.678795 2.104793,-6.291823 5.849412,-6.291823 2.617162,0 4.835611,1.457977 5.413623,4.070761 z m 47.280299,3.283972 c 0.0675,1.780228 1.31648,3.169585 3.14534,3.169585 1.78205,0 2.91558,-1.504534 3.00736,-3.169585 z m 3.14534,5.250246 c -3.56046,0 -5.78012,-2.914008 -5.78012,-6.313156 0,-3.678795 2.106,-6.291823 5.85123,-6.291823 2.61108,0 4.83014,1.457977 5.41058,4.070761 l -2.49682,0 c -0.46557,-1.317211 -1.3882,-1.987182 -2.91376,-1.987182 -2.19778,0 -3.21645,1.663107 -3.21645,3.538759 l 8.78627,0 c 0.44187,3.582641 -1.87018,6.982641 -5.64093,6.982641 z m -42.10554,3.260814 -2.63418,0 0,-3.584768 -1.989917,0 0,-1.964938 1.989917,0 0,-7.054907 c 0.0468,-1.987426 0.552485,-3.052524 3.305184,-3.052524 0.578012,0 1.134751,0.09287 1.709725,0.14034 l 0,2.033739 c -0.368324,-0.09214 -0.740294,-0.09214 -1.108009,-0.09214 -1.180336,0 -1.27272,0.555585 -1.27272,1.643658 l 0,6.381836 2.380729,0 0,1.964938 -2.380729,0 z m 56.11823,-8.487782 c -1.94434,0.439739 -3.8832,0.624873 -3.8832,1.918867 0,1.039874 1.41008,1.22744 2.17286,1.22744 1.15542,0 2.19536,-0.348996 2.42693,-1.598316 l 2.75269,0 c -0.32334,2.660314 -2.54483,3.678977 -4.99606,3.678977 -2.17408,0 -4.99546,-0.810797 -4.99546,-3.423278 0,-2.42759 1.89692,-3.120901 3.83822,-3.53803 1.91941,-0.439192 3.83943,-0.601351 3.91055,-1.989066 0.0687,-1.364012 -1.66597,-1.571026 -2.6585,-1.571026 -1.4119,0 -2.57096,0.554369 -2.70772,2.080236 l -2.63478,0 c 0.045,-2.821441 2.28895,-4.163815 5.2951,-4.163815 2.47189,0 5.34068,1.041091 5.34068,3.886782 0,2.358058 -1.94372,3.052463 -3.86131,3.491229"
       style="fill:#161315;fill-opacity:1;fill-rule:nonzero;stroke:none"
       id="path24" /><path
       style="fill:none;fill-rule:evenodd;stroke:#000000;stroke-width:0.45584548px;stroke-linecap:butt;stroke-linejoin:miter;stroke-opacity:1"
       d="m 136.98812,37.538197 0,-30.0940307"
       id="path3350"
       inkscape:connector-curvature="0" /><g
       transform="scale(1,-1)"
       style="font-style:normal;font-variant:normal;font-weight:normal;font-stretch:normal;font-size:16.875px;line-height:125%;font-family:'.Helvetica LT MM';-inkscape-font-specification:'.Helvetica LT MM';letter-spacing:0px;word-spacing:0px;fill:#000000;fill-opacity:1;stroke:none;stroke-width:1px;stroke-linecap:butt;stroke-linejoin:miter;stroke-opacity:1"
       id="text3352"><path
         d="m 149.11172,-31.342563 c 0.0103,-0.533339 -0.11283,-1.005139 -0.3795,-1.38463 -0.44102,-0.646161 -1.14873,-1.117961 -2.21541,-1.117961 -1.4154,0 -2.16412,0.830778 -2.55387,1.866687 -0.26667,0.635904 -0.31795,1.425657 -0.31795,2.1231 0.0103,0.943601 0.0513,2.030792 0.52308,2.738492 0.42052,0.769239 1.14873,1.323092 2.41028,1.323092 0.87181,0 1.49746,-0.379492 2.00003,-0.984627 0.49231,-0.625648 0.42051,-1.14873 0.54359,-2.000022 l -1.07693,0 c -0.0718,0.492313 -0.16411,0.97437 -0.4718,1.292322 -0.17437,0.420518 -0.46155,0.748726 -1.08719,0.748726 -0.73847,0 -1.15899,-0.430774 -1.40515,-0.984626 -0.33846,-0.67693 -0.32821,-1.68207 -0.3077,-2.215409 0,-0.543596 0.0205,-1.466683 0.36924,-2.071818 0.25642,-0.523082 0.67693,-0.892317 1.32309,-0.892317 0.65642,0 1.00514,0.317952 1.1795,0.73847 0.2359,0.153847 0.36924,0.44103 0.40001,0.820521 l 1.06668,0 z"
         id="path3359"
         inkscape:connector-curvature="0" /><path
         d="m 154.97508,-29.004075 c 0,-0.810266 -0.1641,-1.466683 -0.53334,-1.897457 -0.42051,-0.543596 -1.0359,-0.861548 -1.84617,-0.861548 -0.90258,0 -1.54873,0.410261 -1.8872,1.117961 -0.33846,0.430774 -0.48206,1.056422 -0.48206,1.846174 0.0103,1.128218 0.21539,1.825661 0.59488,2.205153 0.45129,0.553852 1.06668,0.769239 1.77438,0.769239 0.71795,0 1.33335,-0.20513 1.78463,-0.779496 0.3795,-0.430774 0.59488,-1.189756 0.59488,-2.400026 z m -1.04616,0.338465 c 0,0.625648 -0.0821,1.097448 -0.28719,1.394887 -0.21538,0.389748 -0.54359,0.635905 -1.04616,0.635905 -0.49232,0 -0.81026,-0.246157 -1.02565,-0.635905 -0.21539,-0.348722 -0.29744,-0.871804 -0.29744,-1.548735 0,-0.769239 0.10256,-1.282065 0.32821,-1.558991 0.21538,-0.379492 0.54359,-0.564109 1.00514,-0.564109 0.43077,-0.01025 0.76923,0.174361 0.99488,0.543596 0.22564,0.328208 0.32821,0.892317 0.32821,1.733352 z"
         id="path3361"
         inkscape:connector-curvature="0" /><path
         d="m 157.30604,-31.598976 -0.96412,0 0,5.610319 1.0154,0 0,-3.743631 c 0,-0.307696 0.041,-0.53334 0.36923,-0.717957 0.21539,-0.307696 0.53334,-0.4718 0.91284,-0.4718 0.72821,0 0.9436,0.451287 0.9436,1.117961 l 0,3.815427 1.02565,0 0,-2.933366 c 0,-0.50257 -0.0205,-0.964113 -0.0615,-1.425657 -0.0718,-0.994883 -0.71796,-1.4154 -1.58976,-1.4154 -0.71796,0 -1.1795,0.317952 -1.63079,0.882061 l -0.0205,0 0,-0.717957 z"
         id="path3363"
         inkscape:connector-curvature="0" /><path
         d="m 162.43702,-25.988657 1.02566,0 0,-4.841079 0.99488,0 0,-0.76924 -0.99488,0 c -0.0103,-0.2359 0,-0.451287 0.0103,-0.656417 0.0205,-0.7077 0.29743,-0.73847 0.98462,-0.676931 l 0,-0.789752 c -0.77949,-0.06154 -1.30258,0.03077 -1.63079,0.400004 -0.26667,0.276927 -0.33846,0.728214 -0.37949,1.138475 -0.0103,0.194874 -0.0205,0.379491 -0.0205,0.584621 l -0.89232,0 0,0.76924 0.90258,0 0,4.841079 z"
         id="path3365"
         inkscape:connector-curvature="0" /><path
         d="m 166.48226,-25.988657 0,-5.610319 -1.02565,0 0,5.610319 1.02565,0 z m 0,-6.625714 0,-1.107705 -1.02565,0 0,1.107705 1.02565,0 z"
         id="path3367"
         inkscape:connector-curvature="0" /><path
         d="m 171.17878,-30.983584 -0.0205,0 c -0.43077,-0.543596 -0.83077,-0.779496 -1.47694,-0.779496 -0.82052,0 -1.40514,0.543596 -1.74361,1.384631 -0.20513,0.44103 -0.27692,1.005139 -0.25641,1.600017 0.0103,0.153848 -0.0307,1.046166 0.31795,1.671814 0.2359,0.7077 0.72822,1.282065 1.67182,1.282065 0.75898,0 1.13847,-0.225643 1.55899,-0.97437 l 0.0103,0 0,0.810266 0.95386,0 0,-7.692393 -1.0154,0 0,2.697466 z m 0,2.584644 c -0.0205,0.666674 -0.28718,1.764122 -1.21027,1.764122 -0.61539,0 -0.9436,-0.317953 -1.09744,-0.779496 -0.15385,-0.369235 -0.15385,-0.892318 -0.15385,-1.4154 0,-0.789753 0.11282,-1.282066 0.30769,-1.548735 0.21539,-0.369235 0.52309,-0.553853 0.93335,-0.553853 0.61539,0 0.91283,0.410261 1.07693,0.892318 0.15385,0.369235 0.15385,0.871804 0.15385,1.189757 0,0.143591 -0.0103,0.297439 -0.0103,0.451287 z"
         id="path3369"
         inkscape:connector-curvature="0" /><path
         d="m 176.84359,-27.763036 c 0.0205,0.615392 -0.25641,1.271809 -1.08719,1.200013 0,-0.04103 0.0205,-0.05129 0.041,-0.05129 -0.83078,0 -1.10771,-0.728213 -1.15899,-1.466683 0.0513,-0.205131 0.12308,-0.430774 0.18462,-0.574365 l 3.04619,0 c -0.0205,-0.543596 -0.0513,-1.128218 -0.21539,-1.620531 -0.24616,-0.830779 -0.73847,-1.487196 -1.92823,-1.487196 -0.95385,0 -1.50771,0.656417 -1.84617,1.44617 -0.22565,0.512826 -0.31795,1.107704 -0.31795,1.610274 0,0.902574 0.17435,1.507709 0.45128,1.907713 0.43078,0.717957 1.03591,0.97437 1.73335,0.97437 0.93335,0 1.56925,-0.492313 1.87695,-1.241039 0.10256,-0.205131 0.1641,-0.441031 0.17436,-0.697444 l -0.95386,0 z m -2.13335,-1.630787 c -0.0205,-0.112822 -0.0513,-0.26667 -0.0615,-0.410261 0.0205,-0.194874 0.0718,-0.379491 0.14359,-0.533339 0.15384,-0.348722 0.44103,-0.635905 0.96411,-0.635905 0.49232,0 0.75898,0.297439 0.91283,0.646161 0.12308,0.287183 0.12308,0.666674 0.14359,0.933344 l -2.10258,0 z"
         id="path3371"
         inkscape:connector-curvature="0" /><path
         d="m 180.16286,-31.598976 -0.96411,0 0,5.610319 1.01539,0 0,-3.743631 c 0,-0.307696 0.041,-0.53334 0.36923,-0.717957 0.21539,-0.307696 0.53334,-0.4718 0.91284,-0.4718 0.72821,0 0.9436,0.451287 0.9436,1.117961 l 0,3.815427 1.02565,0 0,-2.933366 c 0,-0.50257 -0.0205,-0.964113 -0.0615,-1.425657 -0.0718,-0.994883 -0.71796,-1.4154 -1.58976,-1.4154 -0.71796,0 -1.1795,0.317952 -1.63079,0.882061 l -0.0205,0 0,-0.717957 z"
         id="path3373"
         inkscape:connector-curvature="0" /><path
         d="m 186.25796,-33.250276 -1.00514,0 0,1.6513 -0.88206,0 0,0.76924 0.8718,0 0,2.912852 c 0,0.307696 0.0103,0.615392 0.0103,0.912831 0.0103,0.97437 0.38974,1.015396 0.96411,1.015396 0.33847,0.01025 0.69744,0.01025 1.09745,0 l 0,-0.830779 c -0.19488,0 -0.38975,0 -0.58462,0 -0.5436,0 -0.46154,-0.266669 -0.46154,-0.482056 l 0,-3.528244 1.06667,0 0,-0.76924 -1.07693,0 0,-1.6513 z"
         id="path3375"
         inkscape:connector-curvature="0" /><path
         d="m 189.45928,-25.988657 0,-5.610319 -1.02566,0 0,5.610319 1.02566,0 z m 0,-6.625714 0,-1.107705 -1.02566,0 0,1.107705 1.02566,0 z"
         id="path3377"
         inkscape:connector-curvature="0" /><path
         d="m 195.16094,-26.450201 c -0.51282,0.04103 -0.49231,-0.20513 -0.49231,-0.461543 l 0,-1.94874 c 0,-0.533339 0,-1.025652 -0.041,-1.538478 -0.0615,-0.389748 -0.22564,-1.364118 -1.76412,-1.364118 -1.13848,0 -1.78463,0.369235 -1.959,1.189757 -0.041,0.133335 -0.0615,0.266669 -0.0513,0.44103 l 0.80001,0 c 0.15385,-0.615391 0.25641,-0.841035 1.04617,-0.841035 0.64616,0 0.98462,0.194874 0.98462,0.861548 0,0.800009 -0.29744,0.482057 -2.16413,1.282066 -0.48205,0.184617 -0.74872,0.512826 -0.85128,0.882061 -0.0923,0.215387 -0.10257,0.420517 -0.10257,0.461543 0,1.087192 0.51283,1.661557 1.69232,1.661557 0.6154,0 1.22053,-0.420517 1.4872,-0.964113 l 0.0205,0 c 0.041,0.400004 0.13333,0.615391 0.28718,0.73847 0.22564,0.112821 0.50257,0.123078 0.90257,0.102565 0.0821,-0.02051 0.17436,-0.03077 0.26667,-0.04103 0,-0.153848 -0.0615,-0.29744 -0.0615,-0.461544 z m -1.55899,-1.312835 c -0.0308,0.9436 -0.73847,1.189757 -1.09745,1.189757 -0.51283,0 -0.76924,-0.184618 -0.84104,-0.543596 -0.0205,-0.102565 -0.0308,-0.225643 -0.0308,-0.358978 0.0103,-0.348722 0.1641,-0.697444 0.55385,-0.851292 0.4718,-0.194874 0.99488,-0.358978 1.43592,-0.615391 0,0.400004 0,0.789752 -0.0205,1.1795 z"
         id="path3379"
         inkscape:connector-curvature="0" /><path
         d="m 197.33196,-25.988657 0,-7.692393 -1.02565,0 0,7.692393 1.02565,0 z"
         id="path3381"
         inkscape:connector-curvature="0" /><path
         d="m 149.11172,-18.521908 c 0.0103,-0.53334 -0.11283,-1.00514 -0.3795,-1.384631 -0.44102,-0.646161 -1.14873,-1.117961 -2.21541,-1.117961 -1.4154,0 -2.16412,0.830778 -2.55387,1.866687 -0.26667,0.635905 -0.31795,1.425657 -0.31795,2.1231 0.0103,0.943601 0.0513,2.030792 0.52308,2.738492 0.42052,0.769239 1.14873,1.323092 2.41028,1.323092 0.87181,0 1.49746,-0.379492 2.00003,-0.984627 0.49231,-0.625647 0.42051,-1.14873 0.54359,-2.000022 l -1.07693,0 c -0.0718,0.492314 -0.16411,0.97437 -0.4718,1.292322 -0.17437,0.420518 -0.46155,0.748727 -1.08719,0.748727 -0.73847,0 -1.15899,-0.430774 -1.40515,-0.984627 -0.33846,-0.67693 -0.32821,-1.682069 -0.3077,-2.215409 0,-0.543595 0.0205,-1.466683 0.36924,-2.071817 0.25642,-0.523083 0.67693,-0.892318 1.32309,-0.892318 0.65642,0 1.00514,0.317952 1.1795,0.73847 0.2359,0.153848 0.36924,0.44103 0.40001,0.820522 l 1.06668,0 z"
         id="path3383"
         inkscape:connector-curvature="0" /><path
         d="m 154.97508,-16.183421 c 0,-0.810265 -0.1641,-1.466683 -0.53334,-1.897457 -0.42051,-0.543596 -1.0359,-0.861548 -1.84617,-0.861548 -0.90258,0 -1.54873,0.410261 -1.8872,1.117961 -0.33846,0.430774 -0.48206,1.056422 -0.48206,1.846174 0.0103,1.128218 0.21539,1.825662 0.59488,2.205153 0.45129,0.553852 1.06668,0.769239 1.77438,0.769239 0.71795,0 1.33335,-0.20513 1.78463,-0.779496 0.3795,-0.430774 0.59488,-1.189756 0.59488,-2.400026 z m -1.04616,0.338465 c 0,0.625648 -0.0821,1.097448 -0.28719,1.394887 -0.21538,0.389748 -0.54359,0.635905 -1.04616,0.635905 -0.49232,0 -0.81026,-0.246157 -1.02565,-0.635905 -0.21539,-0.348721 -0.29744,-0.871804 -0.29744,-1.548735 0,-0.769239 0.10256,-1.282065 0.32821,-1.558991 0.21538,-0.379492 0.54359,-0.564109 1.00514,-0.564109 0.43077,-0.01026 0.76923,0.174361 0.99488,0.543596 0.22564,0.328208 0.32821,0.892317 0.32821,1.733352 z"
         id="path3385"
         inkscape:connector-curvature="0" /><path
         d="m 157.37783,-16.962917 c 0,-0.317952 0.0205,-0.553852 0.34872,-0.758983 0.21539,-0.266669 0.53334,-0.379491 0.90258,-0.379491 0.72821,0 0.93334,0.369235 0.93334,1.097448 l 0,3.83594 1.02566,0 0,-2.523105 0,-1.087191 c 0,-0.420518 0.0513,-0.717957 0.38974,-0.994883 0.22565,-0.205131 0.53334,-0.317952 0.84104,-0.328209 0.74872,0 0.95385,0.328209 0.95385,1.097448 l 0,3.83594 1.02565,0 0,-3.476962 c 0,-0.482056 0.12308,-1.446169 -0.4718,-1.917969 -0.33846,-0.256414 -0.74872,-0.379492 -1.15898,-0.379492 -0.80001,0 -1.29232,0.358978 -1.74361,1.005139 l 0,0 c -0.19488,-0.41026 -0.52308,-0.748726 -0.98463,-0.892317 -0.22564,-0.0718 -0.45128,-0.09231 -0.68719,-0.08205 -0.62564,0.02051 -1.13847,0.44103 -1.4154,0.933343 l -0.0205,0 0,-0.800008 -0.96411,0 0,5.610318 1.02565,0 0,-3.794914 z"
         id="path3387"
         inkscape:connector-curvature="0" /><path
         d="m 166.40165,-13.793651 0.0103,0 c 0.3077,0.482056 0.65642,0.779496 1.26156,0.789752 0.26667,0 0.50256,-0.04103 0.71795,-0.133335 0.46154,-0.174361 0.90258,-0.543595 1.13848,-1.14873 0.10256,-0.174361 0.1641,-0.379492 0.21539,-0.605135 0.10256,-0.451287 0.13333,-0.9436 0.13333,-1.435913 0,-0.400005 -0.0615,-0.830779 -0.24616,-1.21027 -0.21538,-0.553852 -0.60513,-1.035909 -1.20001,-1.241039 -0.22564,-0.102566 -0.49231,-0.164105 -0.80001,-0.153848 -0.50257,0.04103 -1.0154,0.287182 -1.28207,0.871804 l -0.0205,0 0,-0.717956 -0.95385,0 0,7.620596 1.02565,0 0,-2.635926 z m 2.43079,-2.174383 c 0,0.666674 -0.0718,1.148731 -0.24615,1.44617 -0.20513,0.44103 -0.52308,0.687187 -0.99488,0.687187 -0.61539,0 -0.91284,-0.420518 -1.06668,-0.923087 -0.13334,-0.410261 -0.13334,-0.923087 -0.13334,-1.261553 0,-0.317952 0.0103,-0.820522 0.15385,-1.200013 0.15385,-0.492313 0.46154,-0.902574 1.03591,-0.902574 0.56411,0 0.88206,0.389748 1.06668,0.882061 0.15385,0.420517 0.18461,0.933344 0.18461,1.271809 z"
         id="path3389"
         inkscape:connector-curvature="0" /><path
         d="m 175.38909,-13.629547 c -0.51283,0.04103 -0.49232,-0.20513 -0.49232,-0.461543 l 0,-1.94874 c 0,-0.533339 0,-1.025652 -0.041,-1.538478 -0.0615,-0.389748 -0.22564,-1.364118 -1.76412,-1.364118 -1.13847,0 -1.78464,0.369235 -1.959,1.189757 -0.041,0.133335 -0.0615,0.266669 -0.0513,0.44103 l 0.8,0 c 0.15386,-0.615391 0.25642,-0.841035 1.04617,-0.841035 0.64616,0 0.98463,0.194874 0.98463,0.861548 0,0.800009 -0.29744,0.482057 -2.16413,1.282066 -0.48206,0.184617 -0.74873,0.512826 -0.85129,0.882061 -0.0923,0.215387 -0.10257,0.420517 -0.10257,0.461543 0,1.087192 0.51283,1.661557 1.69233,1.661557 0.61539,0 1.22053,-0.420517 1.4872,-0.964113 l 0.0205,0 c 0.041,0.400004 0.13334,0.615391 0.28718,0.73847 0.22564,0.112821 0.50257,0.123078 0.90257,0.102565 0.0821,-0.02051 0.17437,-0.03077 0.26667,-0.04103 0,-0.153848 -0.0615,-0.297439 -0.0615,-0.461544 z m -1.55899,-1.312835 c -0.0308,0.9436 -0.73847,1.189757 -1.09745,1.189757 -0.51282,0 -0.76924,-0.184617 -0.84103,-0.543596 -0.0205,-0.102565 -0.0308,-0.225643 -0.0308,-0.358978 0.0103,-0.348722 0.16411,-0.697444 0.55385,-0.851292 0.4718,-0.194873 0.99489,-0.358978 1.43592,-0.615391 0,0.400004 0,0.789752 -0.0205,1.1795 z"
         id="path3391"
         inkscape:connector-curvature="0" /><path
         d="m 177.49856,-18.778321 -0.96411,0 0,5.610318 1.0154,0 0,-3.743631 c 0,-0.307696 0.041,-0.533339 0.36924,-0.717957 0.21538,-0.307696 0.53333,-0.4718 0.91282,-0.4718 0.72822,0 0.9436,0.451287 0.9436,1.117961 l 0,3.815427 1.02566,0 0,-2.933366 c 0,-0.50257 -0.0205,-0.964113 -0.0615,-1.425657 -0.0718,-0.994882 -0.71796,-1.4154 -1.58976,-1.4154 -0.71796,0 -1.17951,0.317952 -1.63079,0.882061 l -0.0205,0 0,-0.717956 z"
         id="path3393"
         inkscape:connector-curvature="0" /><path
         d="m 183.67572,-12.94236 c -0.0821,0.112822 -0.1641,0.205131 -0.22564,0.307696 -0.0923,0.420517 -0.27693,0.676931 -0.86155,0.676931 -0.19488,0 -0.43077,-0.04103 -0.62565,-0.123079 l 0,0.841035 c 0.18462,0.06154 0.38975,0.09231 0.60514,0.102565 0.20513,0 0.4,-0.02051 0.57436,-0.07179 0.86155,-0.2359 1.18976,-1.158987 1.54873,-2.082075 0.63591,-1.835917 1.26156,-3.661578 1.8872,-5.487239 l -1.0359,0 c -0.45129,1.528221 -0.9436,3.117983 -1.42566,4.718 l -0.0103,0 c -0.25642,-0.851291 -0.50258,-1.661557 -0.73847,-2.492335 -0.21539,-0.73847 -0.44104,-1.476939 -0.65642,-2.225665 l -1.05643,0 c 0.67693,1.948739 1.35387,3.887222 2.02054,5.835961 z"
         id="path3395"
         inkscape:connector-curvature="0" /></g></g></svg>