<?xml version="1.0" encoding="UTF-8" standalone="no"?>
<svg
   xmlns:dc="http://purl.org/dc/elements/1.1/"
   xmlns:cc="http://creativecommons.org/ns#"
   xmlns:rdf="http://www.w3.org/1999/02/22-rdf-syntax-ns#"
   xmlns:svg="http://www.w3.org/2000/svg"
   xmlns="http://www.w3.org/2000/svg"
   xmlns:sodipodi="http://sodipodi.sourceforge.net/DTD/sodipodi-0.dtd"
   xmlns:inkscape="http://www.inkscape.org/namespaces/inkscape"
   viewBox="0 0 197.9067 31.773299"
   height="2.1182201pc"
   width="13.19378pc"
   xml:space="preserve"
   id="svg2"
   version="1.1"
   inkscape:version="0.91 r13725"
   sodipodi:docname="netvibes_white.svg"><sodipodi:namedview
     pagecolor="#ffffff"
     bordercolor="#666666"
     borderopacity="1"
     objecttolerance="10"
     gridtolerance="10"
     guidetolerance="10"
     inkscape:pageopacity="0"
     inkscape:pageshadow="2"
     inkscape:window-width="1405"
     inkscape:window-height="855"
     id="namedview13"
     showgrid="false"
     units="pc"
     inkscape:zoom="1.2117898"
     inkscape:cx="248.699"
     inkscape:cy="113.38667"
     inkscape:window-x="35"
     inkscape:window-y="1"
     inkscape:window-maximized="1"
     inkscape:current-layer="text3352" /><metadata
     id="metadata8"><rdf:RDF><cc:Work
         rdf:about=""><dc:format>image/svg+xml</dc:format><dc:type
           rdf:resource="http://purl.org/dc/dcmitype/StillImage" /><dc:title></dc:title></cc:Work></rdf:RDF></metadata><defs
     id="defs6"><clipPath
       id="clipPath20"
       clipPathUnits="userSpaceOnUse"><path
         id="path18"
         d="m 0,0 5669,0 0,1700.79 -5669,0 z"
         inkscape:connector-curvature="0" /></clipPath></defs><g
     transform="matrix(1.3333333,0,0,-1.3333333,13.203609,38.374883)"
     id="g10"><path
       inkscape:connector-curvature="0"
       d="m 65.594722,9.2220383 -0.0101,0 -0.680457,1.9454977 -0.629597,0 0.987687,-2.5956089 -0.06597,-0.2017833 c -0.07061,-0.2218316 -0.136171,-0.3631763 -0.403059,-0.3631763 -0.08994,0 -0.181147,0.019881 -0.27235,0.035474 l 0,-0.484347 c 0.131131,-0.019666 0.262683,-0.030177 0.398855,-0.030177 0.599343,0 0.735517,0.4237404 0.922127,0.8922839 l 1.01375,2.7473356 -0.60018,0 z M 49.056993,8.9447698 c -0.499309,0 -0.720803,0.4434105 -0.720803,0.8921155 0,0.4687537 0.191233,0.9473007 0.730471,0.9473007 0.44425,0 0.721644,-0.342119 0.721644,-0.9167447 0,-0.454128 -0.216451,-0.9226715 -0.731312,-0.9226715 z m 0.710718,1.8853962 -0.0097,0 c -0.176524,0.287481 -0.539238,0.40798 -0.867067,0.40798 -0.569498,0 -1.12933,-0.413738 -1.12933,-1.3561207 0,-0.781285 0.398018,-1.3912148 1.219693,-1.3912148 0.32783,0 0.655238,0.1265921 0.806965,0.4237404 l 0.01009,0 0,-0.3531313 0.54428,0 0,3.5993974 -0.574962,0 z m -3.317801,-0.166646 -0.01009,0 0,0.504016 -0.539237,0 0,-2.6061164 0.574542,0 0,1.2401617 c 0,0.5746257 0.313118,0.8924937 0.706094,0.8924937 0.08028,0 0.166015,-0.01559 0.247133,-0.02564 l 0,0.554914 c -0.05085,0.0051 -0.08616,0.0148 -0.216872,0.0148 -0.353047,0 -0.696007,-0.29698 -0.761573,-0.574626 z M 40.695245,8.9447698 c -0.513599,0 -0.740983,0.4685435 -0.740983,0.9226715 0,0.4482017 0.227384,0.9167447 0.740983,0.9167447 0.514019,0 0.741399,-0.468543 0.741399,-0.9167447 0,-0.454128 -0.22738,-0.9226715 -0.741399,-0.9226715 z m 0,2.2933762 c -0.836389,0 -1.315524,-0.574626 -1.315524,-1.3707047 0,-0.802005 0.479135,-1.3766308 1.315524,-1.3766308 0.836805,0 1.31594,0.5746258 1.31594,1.3766308 0,0.7960787 -0.479135,1.3707047 -1.31594,1.3707047 z m 31.981012,0.377592 0.574539,0 0,0.545079 -0.574539,0 z M 44.401817,9.4389093 c 0,-0.362966 -0.393395,-0.4941395 -0.645151,-0.4941395 -0.201321,0 -0.52957,0.075653 -0.52957,0.3324525 0,0.303074 0.222335,0.393017 0.468627,0.433239 0.253017,0.04598 0.529571,0.04022 0.706094,0.15698 z m 0.574543,-0.297946 0,1.3413257 c 0,0.548988 -0.534614,0.755857 -1.04317,0.755857 -0.574962,0 -1.144461,-0.196992 -1.184809,-0.866857 l 0.574542,0 c 0.02564,0.282564 0.252176,0.412897 0.574962,0.412897 0.232003,0 0.539237,-0.05481 0.539237,-0.352795 0,-0.33758 -0.367757,-0.29223 -0.781747,-0.367757 -0.483338,-0.05518 -1.002821,-0.1608877 -1.002821,-0.8112087 0,-0.5099428 0.423236,-0.7616148 0.892284,-0.7616148 0.307656,0 0.675412,0.095868 0.901951,0.3176577 0.04623,-0.2365411 0.211828,-0.3176577 0.44425,-0.3176577 0.09499,0 0.277394,0.035301 0.362715,0.065479 l 0,0.3981443 c -0.06052,-0.00967 -0.105914,-0.00967 -0.141219,-0.00967 -0.105914,0 -0.136175,0.054975 -0.136175,0.1961925 z m 18.057088,1.5225567 -0.01093,0 0,0.504016 -0.539235,0 0,-2.6061164 0.574544,0 0,1.2401617 c 0,0.5746257 0.313114,0.8924937 0.706091,0.8924937 0.0807,0 0.16686,-0.01559 0.247131,-0.02564 l 0,0.554914 c -0.05,0.0051 -0.08532,0.0148 -0.216871,0.0148 -0.352627,0 -0.696002,-0.29698 -0.760727,-0.574626 z m 12.511735,0.574626 c -0.342123,0 -0.640108,-0.176314 -0.810751,-0.463627 l -0.01093,0.0097 0,0.38335 -0.544278,0 0,-2.6061167 0.57496,0 0,1.5375187 c 0,0.383351 0.246716,0.685248 0.630441,0.685248 0.337075,0 0.498888,-0.176481 0.508977,-0.584461 l 0,-1.6383057 0.574539,0 0,1.7895277 c 0,0.584292 -0.358091,0.887199 -0.922962,0.887199 z m -7.317316,0.710885 -0.574546,0 0,-0.781495 -0.433319,0 0,-0.42849 0.433319,0 0,-1.5375187 c 0.0097,-0.4332813 0.120627,-0.6649052 0.720807,-0.6649052 0.125667,0 0.247131,0.019667 0.372798,0.029375 l 0,0.4442506 c -0.0807,-0.02051 -0.160969,-0.02051 -0.242511,-0.02051 -0.256799,0 -0.276548,0.1215066 -0.276548,0.3580486 l 0,1.3912567 0.519059,0 0,0.42849 -0.519059,0 z m 2.60246,-0.710885 c -0.343382,0 -0.640529,-0.176314 -0.781749,-0.413738 l -0.0097,0 0,1.336409 -0.574539,0 0,-3.5993974 0.574539,0 0,1.5375194 c 0,0.38335 0.246294,0.685247 0.629603,0.685247 0.338334,0 0.498888,-0.176481 0.508971,-0.584461 l 0,-1.6383054 0.574545,0 0,1.7895274 c 0,0.584292 -0.35809,0.887199 -0.921703,0.887199 z M 59.825346,10.093811 c 0.01555,0.388478 0.287481,0.690375 0.685499,0.690375 0.388351,0 0.635484,-0.327535 0.655658,-0.690375 z m 0.685499,1.144335 c -0.775863,0 -1.260042,-0.63519 -1.260042,-1.3756227 0,-0.802173 0.458961,-1.3717128 1.275593,-1.3717128 0.569498,0 1.053257,0.3176577 1.179765,0.8871988 l -0.54428,0 C 61.06101,9.0910323 60.858848,8.9447698 60.526396,8.9447698 c -0.478715,0 -0.70105,0.3626715 -0.70105,0.7706515 l 1.916119,0 c 0.09499,0.7814517 -0.408945,1.5227247 -1.23062,1.5227247 z m -3.01603,-2.0719227 -0.0097,0 -0.660282,2.0013127 -0.625397,0 0.948183,-2.6061164 0.645151,0 0.932633,2.6061164 -0.595136,0 z m -3.807023,0.9934477 1.81483,0 0,0.513726 -1.81483,0 0,0.942341 1.961092,0 0,0.545079 -2.591533,0 0,-3.5993974 2.626838,0 0,0.5442387 -1.996397,0 z m 18.988465,-1.5982514 0.574539,0 0,2.6061164 -0.574539,0 z m -44.17627,0.8774897 c 0,-0.362966 -0.393395,-0.4941395 -0.64515,-0.4941395 -0.201742,0 -0.529571,0.075653 -0.529571,0.3324525 0,0.303074 0.221915,0.393017 0.469048,0.433239 0.252177,0.04598 0.52915,0.04022 0.705673,0.15698 z m 0.574543,-0.297946 0,1.3413257 c 0,0.548988 -0.534194,0.755857 -1.04317,0.755857 -0.574962,0 -1.144461,-0.196992 -1.184809,-0.866857 l 0.574542,0 c 0.02522,0.282564 0.252177,0.412897 0.574962,0.412897 0.231582,0 0.539237,-0.05481 0.539237,-0.352795 0,-0.33758 -0.368178,-0.29223 -0.781326,-0.367757 -0.483759,-0.05518 -1.003242,-0.1608877 -1.003242,-0.8112087 0,-0.5099428 0.423656,-0.7616148 0.892284,-0.7616148 0.307656,0 0.675412,0.095868 0.902371,0.3176577 0.04539,-0.2365411 0.211828,-0.3176577 0.443411,-0.3176577 0.09583,0 0.277394,0.035301 0.363134,0.065479 l 0,0.3981443 c -0.06052,-0.00967 -0.105914,-0.00967 -0.141219,-0.00967 -0.105914,0 -0.136175,0.054975 -0.136175,0.1961925 z m -4.795975,-0.06502 -0.619933,0 0,2.5701817 0.619933,0 c 0.988111,0 1.199939,-0.56395 1.199939,-1.285511 0,-0.7205517 -0.211828,-1.2846707 -1.199939,-1.2846707 z m 0.242089,3.0848737 -1.492044,0 0,-3.5993972 1.492044,0 c 1.109156,0 1.587871,0.8069225 1.587871,1.7991942 0,0.993449 -0.478715,1.800203 -1.587871,1.800203 z m 6.813806,-2.061878 c -0.423236,0.09604 -0.846892,0.136259 -0.846892,0.418613 0,0.226412 0.307655,0.266634 0.473671,0.266634 0.252176,0 0.479135,-0.07553 0.52957,-0.347204 l 0.59976,0 c -0.07061,0.579711 -0.554788,0.801164 -1.088982,0.801164 -0.473671,0 -1.088561,-0.176313 -1.088561,-0.74619 0,-0.5294867 0.413149,-0.6803297 0.836385,-0.7708187 0.418612,-0.09604 0.837225,-0.131342 0.852356,-0.433407 C 31.616467,8.9897415 31.238623,8.94477 31.022172,8.94477 c -0.308076,0 -0.559832,0.1206663 -0.590093,0.4539173 l -0.574962,0 c 0.0105,-0.6158143 0.499309,-0.9078766 1.154547,-0.9078766 0.539658,0 1.164635,0.2273787 1.164635,0.8468086 0,0.514229 -0.423656,0.6650727 -0.841849,0.7613197 z M 37.416947,8.94477 c -0.464006,0 -0.731313,0.3928493 -0.731313,0.9177543 0,0.5539047 0.247133,0.9216617 0.731313,0.9216617 0.473671,0 0.720384,-0.448201 0.720384,-0.9216617 0,-0.454128 -0.196698,-0.9177543 -0.720384,-0.9177543 z m 0.07523,2.293376 c -0.292106,0 -0.619515,-0.155971 -0.775864,-0.40798 l -0.0105,0 0,1.330651 -0.574542,0 0,-3.5993972 0.544281,0 0,0.3577126 0.01009,0 c 0.17148,-0.3421198 0.549745,-0.4283217 0.902793,-0.4283217 0.770819,0 1.123866,0.6606596 1.123866,1.3610376 0,0.7607737 -0.398439,1.3862977 -1.220114,1.3862977 z M 78.511196,9.0153347 c -0.479553,0 -0.685498,0.4332806 -0.685498,0.8617706 0,0.4336167 0.176521,0.9070777 0.685498,0.9070777 0.49931,0 0.700213,-0.412897 0.700213,-0.8619387 0,-0.443242 -0.191236,-0.9069096 -0.700213,-0.9069096 z m 0.700213,1.7944863 -0.0097,0 c -0.146267,0.292231 -0.443415,0.428322 -0.770823,0.428322 -0.741399,0 -1.179767,-0.605013 -1.179767,-1.3052227 0,-0.74619 0.342124,-1.3715035 1.168841,-1.3715035 0.322789,0 0.620773,0.1715644 0.781749,0.4590035 l 0.0097,0 0,-0.3984392 c 0,-0.4283219 -0.205944,-0.6657454 -0.669953,-0.6657454 -0.292099,0 -0.554789,0.055812 -0.625399,0.3831817 l -0.574539,0 c 0.05083,-0.6097624 0.640108,-0.8115034 1.164637,-0.8115034 0.82167,0 1.279793,0.3884356 1.279793,1.1697623 l 0,2.4698567 -0.574539,0 z m -44.926494,0.428322 c -0.34296,0 -0.640107,-0.176313 -0.781326,-0.413738 l -0.0097,0 0,1.336409 -0.574962,0 0,-3.5993972 0.574962,0 0,1.5375192 c 0,0.38335 0.246712,0.685247 0.6296,0.685247 0.337916,0 0.498889,-0.176481 0.509396,-0.58446 l 0,-1.6383062 0.574542,0 0,1.7895272 c 0,0.584293 -0.358091,0.887199 -0.922545,0.887199 z m -26.9530332,10.633269 -2.5524458,0 0,-3.731748 -3.7309496,0 0,-2.550974 3.4174105,0 0,-8.3e-4 0.3135391,0 0,-3.727293 2.5524458,0 0,3.727293 0.3148,0 0,8.3e-4 3.4132072,0 0,2.550974 -3.7280072,0 z M 15.564179,10.233556 c -0.0025,-1.5902239 -1.28736,-2.8740959 -2.880274,-2.8770383 l -13.26321685,0 C -2.1680231,7.3594877 -3.453282,8.6433321 -3.4566444,10.232548 l 0,13.263595 c 0.00336,1.591653 1.2903025,2.876912 2.87733255,2.880274 l 13.26321685,0 c 1.592914,-0.0034 2.877753,-1.288621 2.880274,-2.880274 z m -2.880274,17.019174 -13.26321685,0 c -2.07204935,0 -3.75322515,-1.680335 -3.75406575,-3.756587 l 0,-13.263595 c 8.436e-4,-2.073395 1.6811758,-3.7529317 3.75406575,-3.7529317 l 13.26321685,0 c 2.076253,0 3.757428,1.6795367 3.757428,3.7539397 l 0,13.262587 c 0,2.076252 -1.680335,3.756587 -3.757428,3.756587 z m 44.542343,-4.194113 -1.821135,0 0,-8.268318 1.821135,0 z m 6.269943,-7.051609 c -1.471447,0 -2.31792,1.246929 -2.31792,2.910032 0,1.759981 0.782588,2.926801 2.31792,2.926801 1.503814,0 2.287668,-1.423746 2.287668,-2.926801 0,-1.439003 -0.62498,-2.910032 -2.287668,-2.910032 z m 4.109637,2.877543 c 0,2.414715 -1.262561,4.398082 -3.869228,4.398082 -0.926327,0 -1.967815,-0.495947 -2.462501,-1.29627 l -0.03278,0 0,4.223618 -1.823656,0 0,-11.419682 1.72951,0 0,1.135425 0.0311,0 c 0.543861,-1.087175 1.74212,-1.359526 2.860523,-1.359526 2.447793,0 3.567032,2.09504 3.567032,4.318353 z m -42.755674,0.783596 c 0,1.214944 0.78553,2.175694 2.0006,2.175694 1.070909,0 1.582407,-0.560168 1.613509,-1.856019 l 0,-5.197523 1.824076,0 0,5.676911 c 0,1.855892 -1.134374,2.815423 -2.926508,2.815423 -1.08814,0 -2.03086,-0.560672 -2.573459,-1.471154 l -0.03236,0.03236 0,1.214776 -1.727409,0 0,-8.268318 1.821554,0 z m 32.376094,6.541834 -1.821135,0 0,-1.727829 1.821135,0 z m -5.01831,-3.151364 -2.012368,-6.34976 -0.0353,0 -2.093904,6.34976 -1.981266,0 3.005102,-8.268318 2.045571,0 2.960551,8.268318 z M 35.96399,21.843844 c 1.231881,0 2.015731,-1.040396 2.077934,-2.191791 l -4.252535,0 c 0.04917,1.23104 0.912038,2.191791 2.174601,2.191791 z m 2.063644,-4.462682 c -0.319423,-0.910861 -0.961213,-1.374151 -2.016571,-1.374151 -1.518102,0 -2.221674,1.150051 -2.221674,2.447078 l 6.077032,0 c 0.303457,2.477422 -1.296608,4.828547 -3.902431,4.828547 -2.463343,0 -3.997838,-2.015058 -3.997838,-4.365593 0,-2.543914 1.455479,-4.350842 4.044911,-4.350842 1.809787,0 3.34386,1.008202 3.74356,2.814961 z m 32.694673,2.270891 c 0.04668,1.23104 0.910355,2.191791 2.175025,2.191791 1.232301,0 2.016145,-1.040396 2.079612,-2.191791 z m 2.175025,3.630583 c -2.462084,0 -3.996995,-2.015058 -3.996995,-4.365593 0,-2.543914 1.456314,-4.350842 4.046168,-4.350842 1.805581,0 3.340077,1.008202 3.741456,2.814961 l -1.726569,0 c -0.321945,-0.910861 -0.959951,-1.374151 -2.014887,-1.374151 -1.519781,0 -2.224198,1.150051 -2.224198,2.447078 l 6.07577,0 c 0.305556,2.477422 -1.293244,4.828547 -3.900745,4.828547 z m -29.116288,2.254877 -1.821555,0 0,-2.478893 -1.376042,0 0,-1.358769 1.376042,0 0,-4.87852 c 0.03236,-1.37432 0.382047,-2.110843 2.285559,-2.110843 0.399699,0 0.784688,0.06422 1.182287,0.09705 l 0,1.406346 c -0.254699,-0.06372 -0.511919,-0.06372 -0.766196,-0.06372 -0.816211,0 -0.880095,0.384191 -0.880095,1.136602 l 0,4.413086 1.646291,0 0,1.358769 -1.646291,0 z M 82.58721,19.66815 c -1.344526,0.304082 -2.685261,0.432104 -2.685261,1.32691 0,0.719081 0.97508,0.848784 1.502548,0.848784 0.798982,0 1.518108,-0.241333 1.67824,-1.105247 l 1.903505,0 c -0.223592,1.839626 -1.759768,2.544039 -3.454812,2.544039 -1.503392,0 -3.454397,-0.560672 -3.454397,-2.367222 0,-1.678696 1.311734,-2.158125 2.654157,-2.446573 1.327286,-0.303705 2.654994,-0.415839 2.704174,-1.375454 0.04751,-0.943224 -1.15203,-1.086376 -1.838372,-1.086376 -0.976339,0 -1.777838,0.38335 -1.872408,1.438499 l -1.82197,0 c 0.03112,-1.951047 1.582826,-2.879309 3.661601,-2.879309 1.70933,0 3.693119,0.719922 3.693119,2.687738 0,1.630615 -1.344097,2.110801 -2.670124,2.414211"
       style="fill:#161315;fill-opacity:1;fill-rule:nonzero;stroke:none"
       id="path24" /><path
       style="fill:none;fill-rule:evenodd;stroke:#000000;stroke-width:0.31522048px;stroke-linecap:butt;stroke-linejoin:miter;stroke-opacity:1"
       d="m 91.229786,27.271297 0,-20.8102421"
       id="path3350"
       inkscape:connector-curvature="0" /><g
       transform="scale(1,-1)"
       style="font-style:normal;font-variant:normal;font-weight:normal;font-stretch:normal;font-size:16.875px;line-height:125%;font-family:'.Helvetica LT MM';-inkscape-font-specification:'.Helvetica LT MM';letter-spacing:0px;word-spacing:0px;fill:#000000;fill-opacity:1;stroke:none;stroke-width:1px;stroke-linecap:butt;stroke-linejoin:miter;stroke-opacity:1"
       id="text3352"><path
         d="m 99.613342,-22.986971 c 0.007,-0.368807 -0.078,-0.69506 -0.26243,-0.957481 -0.30496,-0.446825 -0.79435,-0.773078 -1.53197,-0.773078 -0.978757,0 -1.496502,0.574489 -1.766017,1.290827 -0.184405,0.439732 -0.219865,0.985852 -0.219865,1.468139 0.0071,0.652507 0.03547,1.404308 0.361714,1.893688 0.290792,0.531934 0.794358,0.914927 1.666728,0.914927 0.60286,0 1.0355,-0.262421 1.38303,-0.680876 0.34044,-0.432641 0.29079,-0.794356 0.3759,-1.38303 l -0.74471,0 c -0.0496,0.340438 -0.11348,0.673784 -0.32625,0.89365 -0.12058,0.290791 -0.31916,0.517749 -0.7518,0.517749 -0.51066,0 -0.80145,-0.297883 -0.97167,-0.680876 -0.234047,-0.468102 -0.226959,-1.163163 -0.212777,-1.531971 0,-0.375901 0.01418,-1.014222 0.255333,-1.432677 0.177314,-0.361715 0.468104,-0.617044 0.914924,-0.617044 0.45392,0 0.69506,0.219866 0.81563,0.510657 0.16313,0.106387 0.25534,0.304976 0.27661,0.567396 l 0.73762,0 z"
         id="path3359"
         inkscape:connector-curvature="0" /><path
         d="m 103.6679,-21.369889 c 0,-0.560305 -0.11348,-1.014222 -0.36881,-1.312105 -0.29079,-0.375901 -0.71633,-0.595767 -1.27664,-0.595767 -0.62414,0 -1.07096,0.283698 -1.30501,0.773078 -0.23405,0.297883 -0.33335,0.730524 -0.33335,1.276643 0.007,0.780171 0.14894,1.262458 0.41136,1.524879 0.31207,0.382993 0.73762,0.531935 1.227,0.531935 0.49647,0 0.92202,-0.141849 1.23408,-0.539027 0.26243,-0.297884 0.41137,-0.822725 0.41137,-1.659636 z m -0.72343,0.234051 c 0,0.43264 -0.0568,0.758893 -0.19859,0.964575 -0.14894,0.269513 -0.3759,0.439733 -0.72343,0.439733 -0.34044,0 -0.5603,-0.17022 -0.70925,-0.439733 -0.14894,-0.241144 -0.20568,-0.602859 -0.20568,-1.070962 0,-0.531934 0.0709,-0.886557 0.22696,-1.078054 0.14894,-0.262421 0.3759,-0.390085 0.69506,-0.390085 0.29788,-0.0071 0.53193,0.120572 0.68797,0.3759 0.15603,0.226959 0.22696,0.617044 0.22696,1.198626 z"
         id="path3361"
         inkscape:connector-curvature="0" /><path
         d="m 105.27977,-23.164282 -0.66669,0 0,3.879577 0.70215,0 0,-2.588749 c 0,-0.212774 0.0284,-0.368808 0.25533,-0.496472 0.14894,-0.212774 0.36881,-0.326253 0.63124,-0.326253 0.50356,0 0.6525,0.312068 0.6525,0.773078 l 0,2.638396 0.70925,0 0,-2.028444 c 0,-0.347531 -0.0142,-0.666692 -0.0425,-0.985853 -0.0496,-0.687969 -0.49648,-0.978759 -1.09933,-0.978759 -0.49648,0 -0.81564,0.219866 -1.12771,0.609952 l -0.0142,0 0,-0.496473 z"
         id="path3363"
         inkscape:connector-curvature="0" /><path
         d="m 108.82788,-19.284705 0.70926,0 0,-3.347642 0.68796,0 0,-0.531935 -0.68796,0 c -0.007,-0.163127 0,-0.312068 0.007,-0.453917 0.0142,-0.48938 0.20567,-0.510658 0.68087,-0.468103 l 0,-0.546119 c -0.53902,-0.04256 -0.90074,0.02128 -1.1277,0.276606 -0.18441,0.191497 -0.23405,0.503565 -0.26242,0.787263 -0.007,0.134757 -0.0142,0.262421 -0.0142,0.40427 l -0.61705,0 0,0.531935 0.62415,0 0,3.347642 z"
         id="path3365"
         inkscape:connector-curvature="0" /><path
         d="m 111.6252,-19.284705 0,-3.879577 -0.70925,0 0,3.879577 0.70925,0 z m 0,-4.58173 0,-0.765986 -0.70925,0 0,0.765986 0.70925,0 z"
         id="path3367"
         inkscape:connector-curvature="0" /><path
         d="m 114.87287,-22.738734 -0.0142,0 c -0.29788,-0.375901 -0.57448,-0.539027 -1.02132,-0.539027 -0.56739,0 -0.97166,0.375901 -1.20571,0.957482 -0.14185,0.304976 -0.1915,0.695061 -0.17731,1.106424 0.007,0.106387 -0.0212,0.723431 0.21986,1.156071 0.16313,0.48938 0.50357,0.886558 1.15608,0.886558 0.52484,0 0.78726,-0.156034 1.07805,-0.673784 l 0.007,0 0,0.560305 0.6596,0 0,-5.319346 -0.70215,0 0,1.865317 z m 0,1.7873 c -0.0142,0.46101 -0.19858,1.219904 -0.83691,1.219904 -0.42554,0 -0.6525,-0.219867 -0.75888,-0.539028 -0.10639,-0.255328 -0.10639,-0.617044 -0.10639,-0.978759 0,-0.54612 0.078,-0.886558 0.21277,-1.070962 0.14894,-0.255328 0.36172,-0.382993 0.64542,-0.382993 0.42554,0 0.63123,0.283698 0.7447,0.617044 0.10639,0.255329 0.10639,0.602859 0.10639,0.822726 0,0.09929 -0.007,0.205681 -0.007,0.312068 z"
         id="path3369"
         inkscape:connector-curvature="0" /><path
         d="m 118.79013,-20.511701 c 0.0142,0.425548 -0.17731,0.879465 -0.7518,0.829817 0,-0.02837 0.0142,-0.03547 0.0284,-0.03547 -0.57449,0 -0.76599,-0.503565 -0.80145,-1.014222 0.0355,-0.14185 0.0851,-0.297883 0.12767,-0.397178 l 2.10646,0 c -0.0142,-0.3759 -0.0355,-0.780171 -0.14894,-1.120609 -0.17022,-0.574489 -0.51066,-1.028407 -1.33339,-1.028407 -0.65959,0 -1.04259,0.453918 -1.27664,1.000037 -0.15603,0.354623 -0.21986,0.765986 -0.21986,1.113517 0,0.624136 0.12056,1.042592 0.31206,1.319197 0.29789,0.496473 0.71634,0.673784 1.19863,0.673784 0.64542,0 1.08514,-0.340438 1.29792,-0.858187 0.0709,-0.14185 0.11348,-0.304977 0.12057,-0.482288 l -0.6596,0 z m -1.47522,-1.127702 c -0.0142,-0.07802 -0.0355,-0.184404 -0.0425,-0.283698 0.0142,-0.134757 0.0496,-0.262421 0.0993,-0.368808 0.10638,-0.241144 0.30498,-0.439733 0.66669,-0.439733 0.34044,0 0.52484,0.205681 0.63123,0.446825 0.0851,0.198589 0.0851,0.46101 0.0993,0.645414 l -1.45395,0 z"
         id="path3371"
         inkscape:connector-curvature="0" /><path
         d="m 121.08543,-23.164282 -0.66669,0 0,3.879577 0.70215,0 0,-2.588749 c 0,-0.212774 0.0284,-0.368808 0.25533,-0.496472 0.14894,-0.212774 0.36881,-0.326253 0.63123,-0.326253 0.50357,0 0.65251,0.312068 0.65251,0.773078 l 0,2.638396 0.70924,0 0,-2.028444 c 0,-0.347531 -0.0142,-0.666692 -0.0425,-0.985853 -0.0496,-0.687969 -0.49648,-0.978759 -1.09933,-0.978759 -0.49648,0 -0.81564,0.219866 -1.12771,0.609952 l -0.0142,0 0,-0.496473 z"
         id="path3373"
         inkscape:connector-curvature="0" /><path
         d="m 125.30024,-24.306168 -0.69506,0 0,1.141886 -0.60995,0 0,0.531935 0.60285,0 0,2.014259 c 0,0.212774 0.007,0.425548 0.007,0.631229 0.007,0.673784 0.26951,0.702154 0.66669,0.702154 0.23406,0.0071 0.48229,0.0071 0.7589,0 l 0,-0.57449 c -0.13476,0 -0.26952,0 -0.40427,0 -0.3759,0 -0.31916,-0.184404 -0.31916,-0.333345 l 0,-2.439807 0.73761,0 0,-0.531935 -0.7447,0 0,-1.141886 z"
         id="path3375"
         inkscape:connector-curvature="0" /><path
         d="m 127.51397,-19.284705 0,-3.879577 -0.70925,0 0,3.879577 0.70925,0 z m 0,-4.58173 0,-0.765986 -0.70925,0 0,0.765986 0.70925,0 z"
         id="path3377"
         inkscape:connector-curvature="0" /><path
         d="m 131.45671,-19.603866 c -0.35462,0.02837 -0.34043,-0.141849 -0.34043,-0.319161 l 0,-1.347568 c 0,-0.368808 0,-0.709246 -0.0284,-1.063869 -0.0425,-0.269513 -0.15604,-0.943297 -1.21991,-0.943297 -0.78726,0 -1.23408,0.255329 -1.35466,0.822726 -0.0283,0.0922 -0.0425,0.184403 -0.0355,0.304975 l 0.55321,0 c 0.10639,-0.425547 0.17731,-0.581582 0.72343,-0.581582 0.44683,0 0.68088,0.134757 0.68088,0.595767 0,0.553212 -0.20569,0.333346 -1.49652,0.886558 -0.33334,0.127664 -0.51774,0.354623 -0.58866,0.609952 -0.0638,0.148941 -0.0709,0.29079 -0.0709,0.31916 0,0.751801 0.35463,1.148979 1.17025,1.148979 0.42556,0 0.84401,-0.290791 1.02841,-0.666691 l 0.0142,0 c 0.0283,0.276605 0.0922,0.425547 0.19858,0.510657 0.15604,0.07802 0.34754,0.08511 0.62414,0.07092 0.0568,-0.01418 0.12057,-0.02128 0.1844,-0.02837 0,-0.106387 -0.0425,-0.205682 -0.0425,-0.319161 z m -1.07805,-0.907835 c -0.0213,0.652506 -0.51066,0.822725 -0.75889,0.822725 -0.35463,0 -0.53194,-0.127664 -0.58159,-0.3759 -0.0142,-0.07092 -0.0213,-0.156034 -0.0213,-0.248236 0.007,-0.241144 0.11348,-0.482288 0.38299,-0.588675 0.32626,-0.134757 0.68797,-0.248236 0.99295,-0.425547 0,0.276605 0,0.546119 -0.0142,0.815633 z"
         id="path3379"
         inkscape:connector-curvature="0" /><path
         d="m 132.95799,-19.284705 0,-5.319346 -0.70924,0 0,5.319346 0.70924,0 z"
         id="path3381"
         inkscape:connector-curvature="0" /><path
         d="m 99.613342,-14.121394 c 0.007,-0.368808 -0.078,-0.695062 -0.26243,-0.957482 -0.30496,-0.446825 -0.79435,-0.773079 -1.53197,-0.773079 -0.978757,0 -1.496502,0.574489 -1.766017,1.290828 -0.184405,0.439733 -0.219865,0.985852 -0.219865,1.468139 0.0071,0.652507 0.03547,1.404308 0.361714,1.893688 0.290792,0.531934 0.794358,0.914927 1.666728,0.914927 0.60286,0 1.0355,-0.262421 1.38303,-0.680876 0.34044,-0.43264 0.29079,-0.794356 0.3759,-1.38303 l -0.74471,0 c -0.0496,0.340438 -0.11348,0.673784 -0.32625,0.89365 -0.12058,0.290791 -0.31916,0.51775 -0.7518,0.51775 -0.51066,0 -0.80145,-0.297883 -0.97167,-0.680877 -0.234047,-0.468102 -0.226959,-1.163163 -0.212777,-1.531971 0,-0.3759 0.01418,-1.014222 0.255333,-1.432677 0.177314,-0.361716 0.468104,-0.617044 0.914924,-0.617044 0.45392,0 0.69506,0.219866 0.81563,0.510657 0.16313,0.106387 0.25534,0.304976 0.27661,0.567397 l 0.73762,0 z"
         id="path3383"
         inkscape:connector-curvature="0" /><path
         d="m 103.6679,-12.504313 c 0,-0.560304 -0.11348,-1.014222 -0.36881,-1.312105 -0.29079,-0.375901 -0.71633,-0.595767 -1.27664,-0.595767 -0.62414,0 -1.07096,0.283698 -1.30501,0.773078 -0.23405,0.297883 -0.33335,0.730524 -0.33335,1.276643 0.007,0.780171 0.14894,1.262458 0.41136,1.524879 0.31207,0.382993 0.73762,0.531935 1.227,0.531935 0.49647,0 0.92202,-0.141849 1.23408,-0.539028 0.26243,-0.297883 0.41137,-0.822725 0.41137,-1.659635 z m -0.72343,0.234051 c 0,0.43264 -0.0568,0.758893 -0.19859,0.964575 -0.14894,0.269513 -0.3759,0.439732 -0.72343,0.439732 -0.34044,0 -0.5603,-0.170219 -0.70925,-0.439732 -0.14894,-0.241144 -0.20568,-0.602859 -0.20568,-1.070962 0,-0.531934 0.0709,-0.886557 0.22696,-1.078054 0.14894,-0.262421 0.3759,-0.390085 0.69506,-0.390085 0.29788,-0.0071 0.53193,0.120572 0.68797,0.3759 0.15603,0.226959 0.22696,0.617044 0.22696,1.198626 z"
         id="path3385"
         inkscape:connector-curvature="0" /><path
         d="m 105.32942,-13.04334 c 0,-0.219866 0.0142,-0.382993 0.24114,-0.524843 0.14894,-0.184403 0.36881,-0.26242 0.62414,-0.26242 0.50356,0 0.64541,0.255328 0.64541,0.758893 l 0,2.652581 0.70925,0 0,-1.744746 0,-0.751801 c 0,-0.290791 0.0355,-0.496472 0.26951,-0.687968 0.15604,-0.14185 0.36881,-0.219867 0.58159,-0.226959 0.51774,0 0.65959,0.226959 0.65959,0.758893 l 0,2.652581 0.70925,0 0,-2.404345 c 0,-0.333345 0.0851,-1.000037 -0.32626,-1.32629 -0.23405,-0.177312 -0.51774,-0.262421 -0.80144,-0.262421 -0.55321,0 -0.89365,0.248236 -1.20572,0.695061 l 0,0 c -0.13476,-0.283698 -0.36171,-0.51775 -0.68088,-0.617044 -0.15603,-0.04965 -0.31206,-0.06383 -0.4752,-0.05674 -0.43263,0.01418 -0.78726,0.304975 -0.97876,0.645413 l -0.0142,0 0,-0.553211 -0.66669,0 0,3.879576 0.70924,0 0,-2.624211 z"
         id="path3387"
         inkscape:connector-curvature="0" /><path
         d="m 111.56945,-10.85177 0.007,0 c 0.21277,0.333346 0.45392,0.539028 0.87238,0.54612 0.1844,0 0.34752,-0.02837 0.49646,-0.0922 0.31916,-0.120572 0.62414,-0.3759 0.78727,-0.794356 0.0709,-0.120572 0.11348,-0.262421 0.14894,-0.418455 0.0709,-0.312068 0.0922,-0.652506 0.0922,-0.992944 0,-0.276607 -0.0425,-0.57449 -0.17022,-0.836911 -0.14894,-0.382993 -0.41845,-0.716338 -0.82981,-0.858187 -0.15604,-0.07093 -0.34044,-0.11348 -0.55322,-0.106387 -0.34753,0.02837 -0.70215,0.198588 -0.88656,0.602858 l -0.0142,0 0,-0.496471 -0.6596,0 0,5.2696967 0.70925,0 0,-1.8227617 z m 1.68091,-1.503601 c 0,0.46101 -0.0497,0.794356 -0.17021,1.000037 -0.14185,0.304975 -0.36171,0.475195 -0.68797,0.475195 -0.42554,0 -0.63123,-0.290792 -0.73761,-0.638322 -0.0922,-0.283698 -0.0922,-0.638321 -0.0922,-0.872373 0,-0.219866 0.007,-0.567397 0.10639,-0.829818 0.10639,-0.340438 0.31916,-0.624136 0.71634,-0.624136 0.39008,0 0.60995,0.269513 0.73761,0.609951 0.10639,0.290791 0.12766,0.645415 0.12766,0.879466 z"
         id="path3389"
         inkscape:connector-curvature="0" /><path
         d="m 117.78434,-10.738291 c -0.35463,0.02837 -0.34045,-0.141848 -0.34045,-0.31916 l 0,-1.347568 c 0,-0.368808 0,-0.709246 -0.0284,-1.063869 -0.0425,-0.269513 -0.15603,-0.943297 -1.2199,-0.943297 -0.78726,0 -1.23409,0.255329 -1.35466,0.822725 -0.0284,0.0922 -0.0425,0.184404 -0.0355,0.304976 l 0.55321,0 c 0.10639,-0.425547 0.17731,-0.581582 0.72343,-0.581582 0.44683,0 0.68088,0.134757 0.68088,0.595767 0,0.553212 -0.20568,0.333346 -1.49651,0.886558 -0.33335,0.127664 -0.51775,0.354623 -0.58867,0.609951 -0.0638,0.148942 -0.0709,0.290791 -0.0709,0.319161 0,0.751801 0.35462,1.148979 1.17026,1.148979 0.42554,0 0.844,-0.290791 1.02841,-0.666692 l 0.0142,0 c 0.0283,0.276606 0.0922,0.425548 0.19859,0.510658 0.15603,0.07802 0.34753,0.08511 0.62413,0.07092 0.0568,-0.01418 0.12058,-0.02128 0.18441,-0.02837 0,-0.106387 -0.0425,-0.205681 -0.0425,-0.319161 z m -1.07806,-0.907835 c -0.0213,0.652507 -0.51066,0.822726 -0.75889,0.822726 -0.35462,0 -0.53194,-0.127664 -0.58158,-0.3759 -0.0142,-0.07093 -0.0213,-0.156034 -0.0213,-0.248236 0.007,-0.241144 0.11348,-0.482288 0.38299,-0.588675 0.32626,-0.134756 0.68798,-0.248236 0.99295,-0.425547 0,0.276605 0,0.546119 -0.0142,0.815632 z"
         id="path3391"
         inkscape:connector-curvature="0" /><path
         d="m 119.24305,-14.298705 -0.66669,0 0,3.879576 0.70216,0 0,-2.588749 c 0,-0.212774 0.0283,-0.368807 0.25533,-0.496472 0.14894,-0.212774 0.3688,-0.326253 0.63122,-0.326253 0.50357,0 0.65251,0.312068 0.65251,0.773078 l 0,2.638396 0.70925,0 0,-2.028445 c 0,-0.34753 -0.0142,-0.666691 -0.0425,-0.985852 -0.0496,-0.687968 -0.49647,-0.978759 -1.09933,-0.978759 -0.49648,0 -0.81564,0.219866 -1.1277,0.609951 l -0.0142,0 0,-0.496471 z"
         id="path3393"
         inkscape:connector-curvature="0" /><path
         d="m 123.5146,-10.263096 c -0.0568,0.07802 -0.11348,0.14185 -0.15603,0.212774 -0.0638,0.2907907 -0.1915,0.4681027 -0.59577,0.4681027 -0.13476,0 -0.29788,-0.02837 -0.43264,-0.08511 l 0,0.581582 c 0.12766,0.04256 0.26951,0.06383 0.41846,0.070924 0.14185,0 0.2766,-0.014182 0.39717,-0.049643 0.59577,-0.163127 0.82273,-0.801448 1.07096,-1.4397697 0.43974,-1.26955 0.87238,-2.532008 1.30501,-3.794466 l -0.71633,0 c -0.31207,1.056776 -0.65251,2.156108 -0.98585,3.262532 l -0.007,0 c -0.17731,-0.588674 -0.34753,-1.148979 -0.51065,-1.723468 -0.14895,-0.510658 -0.30499,-1.021314 -0.45392,-1.539064 l -0.73053,0 c 0.4681,1.347567 0.93621,2.688043 1.39722,4.03561 z"
         id="path3395"
         inkscape:connector-curvature="0" /></g></g></svg>